<?xml version="1.0" encoding="utf-8"?>
<!-- Generator: Adobe Illustrator 21.0.0, SVG Export Plug-In . SVG Version: 6.00 Build 0)  -->
<svg version="1.1" id="Layer_1" xmlns="http://www.w3.org/2000/svg" xmlns:xlink="http://www.w3.org/1999/xlink" x="0px" y="0px"
	 viewBox="0 0 5000 5000" style="enable-background:new 0 0 5000 5000;" xml:space="preserve">
<style type="text/css">
	.st0{fill:none;stroke:#000000;stroke-width:10;stroke-miterlimit:10;}
</style>
<path class="st0" d="M825.1,2414.5l522.3-494.8h412.3c0,0,865.9-1264.4,2295.2-1305.7c0,0-27.5,1333.2-1250.7,2212.8l-27.5,467.3
	L2117,3912.6l-123.7-700.9c0,0-522.3,82.5-549.8-604.7L825.1,2414.5z"/>
<path class="st0" d="M1292.3,3074.3l-467.3,453.5c0,0-73.3,394.9,274.9,384.8l439.8-522.3L1292.3,3074.3z"/>
<line class="st0" x1="1601.4" y1="3494.1" x2="1215.4" y2="3967.6"/>
<line class="st0" x1="1669.1" y1="3596.3" x2="1408.4" y2="3929.3"/>
<line class="st0" x1="1731" y1="3678.8" x2="1601.4" y2="3863.6"/>
<line class="st0" x1="1215.4" y1="2990.2" x2="789.2" y2="3354.8"/>
<line class="st0" x1="1140.4" y1="2891.1" x2="844.6" y2="3117.9"/>
<line class="st0" x1="1066.4" y1="2788.6" x2="915.2" y2="2891.1"/>
</svg>
