<?xml version="1.0" encoding="utf-8"?>
<!-- Generator: Adobe Illustrator 17.0.0, SVG Export Plug-In . SVG Version: 6.00 Build 0)  -->
<!DOCTYPE svg PUBLIC "-//W3C//DTD SVG 1.1//EN" "http://www.w3.org/Graphics/SVG/1.1/DTD/svg11.dtd">
<svg version="1.1" id="Layer_1" xmlns="http://www.w3.org/2000/svg" xmlns:xlink="http://www.w3.org/1999/xlink" x="0px" y="0px"
	 width="500px" height="500px" viewBox="0 0 500 500" enable-background="new 0 0 500 500" xml:space="preserve">
<path fill="none" stroke="#000000" stroke-miterlimit="10" d="M305.19,396.88h38.57c4.21,0,7.49-3.64,7.06-7.82l-5.83-56.89h-40.7
	l-6.16,56.84C297.67,393.22,300.96,396.88,305.19,396.88z"/>
<line fill="none" stroke="#000000" stroke-miterlimit="10" x1="179.69" y1="299.07" x2="464.97" y2="299.07"/>
<line fill="none" stroke="#000000" stroke-miterlimit="10" x1="179.69" y1="377.72" x2="204.2" y2="377.72"/>
<line fill="none" stroke="#000000" stroke-miterlimit="10" x1="289.68" y1="134.22" x2="344.44" y2="134.22"/>
<path fill="none" stroke="#000000" stroke-miterlimit="10" d="M179.69,139.52v169.39c0,12.83,10.4,23.24,23.24,23.24h238.8
	c12.84,0,23.24-10.4,23.24-23.24V139.52c0-12.83-10.4-23.24-23.24-23.24h-238.8C190.1,116.28,179.69,126.69,179.69,139.52z"/>
<path fill="#FCFCFC" stroke="#000000" stroke-miterlimit="10" d="M160.94,222.12h117.21c7,0,12.68,5.68,12.68,12.68v186.8
	c0,7-5.68,12.68-12.68,12.68H160.94c-7,0-12.68-5.68-12.68-12.68V234.8C148.26,227.8,153.94,222.12,160.94,222.12z"/>
<rect x="162.8" y="237.74" fill="#FCFCFC" stroke="#000000" stroke-miterlimit="10" width="114.25" height="164.18"/>
<path fill="#FCFCFC" stroke="#000000" stroke-miterlimit="10" d="M123.44,303.56h63.12c3.66,0,6.63,2.97,6.63,6.63v149.65
	c0,3.66-2.97,6.63-6.63,6.63h-63.12c-3.66,0-6.63-2.97-6.63-6.63V310.19C116.8,306.53,119.77,303.56,123.44,303.56z"/>
<line fill="none" stroke="#000000" stroke-miterlimit="10" x1="146.92" y1="313.88" x2="162.21" y2="313.88"/>
<line fill="none" stroke="#000000" stroke-width="2" stroke-miterlimit="10" x1="129.833" y1="313.88" x2="132.963" y2="313.88"/>
<line fill="none" stroke="#000000" stroke-miterlimit="10" x1="116.8" y1="325.31" x2="193.19" y2="325.31"/>
<line fill="none" stroke="#000000" stroke-miterlimit="10" x1="116.8" y1="436.59" x2="193.19" y2="436.59"/>
<circle fill="#FCFCFC" stroke="#000000" stroke-miterlimit="10" cx="155.98" cy="451.48" r="7.16"/>
<line fill="none" stroke="#000000" stroke-miterlimit="10" x1="201.67" y1="417.72" x2="234.2" y2="417.72"/>
<circle fill="none" stroke="#000000" stroke-miterlimit="10" cx="178.167" cy="314.5" r="2.833"/>
</svg>
