<?xml version="1.0" encoding="utf-8"?>
<!-- Generator: Adobe Illustrator 21.0.0, SVG Export Plug-In . SVG Version: 6.00 Build 0)  -->
<svg version="1.1" id="Layer_1" xmlns="http://www.w3.org/2000/svg" xmlns:xlink="http://www.w3.org/1999/xlink" x="0px" y="0px"
	 viewBox="0 0 1771 2055.8" style="enable-background:new 0 0 1771 2055.8;" xml:space="preserve">
<style type="text/css">
	.st0{fill:#E44D26;}
	.st1{fill:#F16529;}
	.st2{fill:#EBEBEB;}
	.st3{fill:#FFFFFF;}
</style>
<path class="st0" d="M161.2,1829.3L0,21.6h1771L1609.7,1829l-725.2,201.1L161.2,1829.3z"/>
<path class="st1" d="M885.5,1876.4l586-162.5l137.9-1544.5H885.5V1876.4z"/>
<path class="st2" d="M885.5,839.8H592.1l-20.3-227h313.6V391.1H329.6l5.3,59.5l54.5,611h496.1V839.8z M885.5,1415.6l-1,0.3
	l-246.9-66.7l-15.8-176.8H399.3l31.1,348.1l454.2,126.1l1-0.3L885.5,1415.6L885.5,1415.6z"/>
<path class="st3" d="M884.7,839.8v221.7h273L1132,1349l-247.3,66.7v230.7l454.5-126l3.3-37.5l52.1-583.7l5.4-59.5h-59.7L884.7,839.8
	z M884.7,391.1v221.7h535.5l4.4-49.8l10.1-112.4l5.3-59.5H884.7z"/>
</svg>
