<?xml version="1.0" encoding="utf-8"?>
<!-- Generator: Adobe Illustrator 21.0.0, SVG Export Plug-In . SVG Version: 6.00 Build 0)  -->
<svg version="1.1" id="b33613f3-47b2-4fb7-9d5b-ca5c70d6619d"
	 xmlns="http://www.w3.org/2000/svg" xmlns:xlink="http://www.w3.org/1999/xlink" x="0px" y="0px" viewBox="0 0 863 826.7"
	 style="enable-background:new 0 0 863 826.7;" xml:space="preserve">
<style type="text/css">
	.st0{fill:#F2F2F2;}
	.st1{fill:#3F3D56;}
	.st2{opacity:0.1;enable-background:new    ;}
	.st3{fill:#FA744F;}
	.st4{fill:#2F2E41;}
</style>
<title>laravel and vue</title>
<path class="st0" d="M740.1,309.4C695.2,132.8,540,5.3,357.8,0.2c-96.3-2.7-197.7,29.2-271.4,141C-45.5,341,94.5,479,192.1,544.7
	c47.2,31.8,89.6,70,126.2,113.5c65.9,78.2,192.8,175.5,343.8,23.1C771.6,570.8,770,427,740.1,309.4z"/>
<path class="st1" d="M862,702.7c0,43.4-189.2,124-427.5,124S0,751.1,0,707.7s196.2-38,434.5-38S862,659.4,862,702.7z"/>
<path class="st2" d="M862,702.7c0,43.4-189.2,124-427.5,124S0,751.1,0,707.7s196.2-38,434.5-38S862,659.4,862,702.7z"/>
<ellipse class="st1" cx="431.5" cy="707.2" rx="431.5" ry="78.5"/>
<path class="st3" d="M851,612.7c0,26.1-15.5,35.2-34.7,35.2s-34.7-9.1-34.7-35.2s34.7-59.3,34.7-59.3S851,586.5,851,612.7z"/>
<polygon class="st1" points="815.4,622 830.2,595 815.5,618.6 815.6,608.8 825.8,589.2 815.7,606.2 816,588.5 826.9,572.9 
	816,585.7 816.2,553.3 815.1,594.4 804.1,577.5 815,597.9 813.9,617.6 813.9,617.1 801.1,599.2 813.9,618.9 813.7,621.4 
	813.7,621.4 813.7,621.6 811.1,648 814.6,648 815,645.8 827.7,626.2 815.1,643.9 "/>
<polygon class="st4" points="838.5,704.5 797.1,704.5 786.4,644.2 846.8,644.2 "/>
</svg>
