<?xml version="1.0" encoding="utf-8"?>
<!-- Generator: Adobe Illustrator 21.0.0, SVG Export Plug-In . SVG Version: 6.00 Build 0)  -->
<svg version="1.1" id="b33613f3-47b2-4fb7-9d5b-ca5c70d6619d"
	 xmlns="http://www.w3.org/2000/svg" xmlns:xlink="http://www.w3.org/1999/xlink" x="0px" y="0px" viewBox="0 0 863 826.7"
	 style="enable-background:new 0 0 863 826.7;" xml:space="preserve">
<style type="text/css">
	.st0{fill:#F2F2F2;}
	.st1{fill:#3F3D56;}
	.st2{opacity:0.1;enable-background:new    ;}
	.st3{fill:#2F2E41;}
	.st4{fill:#21BF73;}
	.st5{fill:#FFB9B9;}
	.st6{fill:#D0CDE1;}
	.st7{fill:#8E714E;}
	.st8{fill:#442D22;}
	.st9{fill:#FFFFFF;}
	.st10{fill:#A6A385;}
	.st11{fill:#499D4A;}
	.st12{fill:#58AA50;}
	.st13{fill:#FA744F;}
	.st14{fill:#8CC84B;}
	.st15{fill:#53C1DE;}
	.st16{fill:#222222;}
</style>
<title>laravel and vue</title>
<path class="st0" d="M740.1,309.4C695.2,132.8,540,5.3,357.8,0.2c-96.3-2.7-197.7,29.2-271.4,141C-45.5,341,94.5,479,192.1,544.7
	c47.2,31.8,89.6,70,126.2,113.5c65.9,78.2,192.8,175.5,343.8,23.1C771.6,570.8,770,427,740.1,309.4z"/>
<path class="st1" d="M862,702.7c0,43.4-189.2,124-427.5,124S0,751.1,0,707.7s196.2-38,434.5-38S862,659.4,862,702.7z"/>
<path class="st2" d="M862,702.7c0,43.4-189.2,124-427.5,124S0,751.1,0,707.7s196.2-38,434.5-38S862,659.4,862,702.7z"/>
<ellipse class="st1" cx="431.5" cy="707.2" rx="431.5" ry="78.5"/>
<polygon class="st3" points="594.9,440.2 594.9,650.2 630,707.4 632.6,711.8 771.2,711.8 774,440.2 "/>
<polygon class="st2" points="594.9,440.2 594.9,650.2 630,707.4 632.1,440.2 "/>
<polygon class="st3" points="260.3,434.6 260.3,644.6 225.2,701.8 222.6,706.2 84,706.2 81.2,434.6 "/>
<polygon class="st2" points="260.3,434.6 260.3,644.6 225.2,701.8 223.1,434.6 "/>
<polygon class="st3" points="816,430.4 816,443 63,443 63,424.8 133,388.5 754.4,388.5 "/>
<polygon class="st2" points="816,430.4 816,443 63,443 63,424.8 "/>
<polygon class="st2" points="170.8,493.4 137.2,493.4 123.2,483.6 186.2,483.6 "/>
<polygon class="st2" points="170.8,534 137.2,534 123.2,524.2 186.2,524.2 "/>
<polygon class="st2" points="170.8,591.4 137.2,591.4 123.2,581.6 186.2,581.6 "/>
<polygon class="st2" points="170.8,648.8 137.2,648.8 123.2,639 186.2,639 "/>
<polygon class="st2" points="684.4,499 718,499 732,489.2 669,489.2 "/>
<polygon class="st2" points="684.4,539.6 718,539.6 732,529.8 669,529.8 "/>
<polygon class="st2" points="684.4,597 718,597 732,587.2 669,587.2 "/>
<polygon class="st2" points="684.4,654.4 718,654.4 732,644.6 669,644.6 "/>
<path class="st1" d="M532.5,353.4l-4.7,29.8c0,0-23,12.2-6.8,12.6s92.3,0,92.3,0s14.7,0-8.6-12.9l-4.7-31.2L532.5,353.4z"/>
<path class="st2" d="M517.8,395.5c3.1-2.5,6.5-4.8,10.1-6.7l4.7-29.8l67.5,0.1l4.7,29.4c3.8,2,7.5,4.4,10.8,7.1
	c3-0.7,6.3-3.2-10.8-12.7l-4.7-31.2l-67.5,1.8l-4.7,29.8C527.8,383.2,508.5,393.5,517.8,395.5z"/>
<path class="st4" d="M424.5,145.7h282.8c5.9,0,10.7,4.8,10.7,10.7v190.5c0,5.9-4.8,10.7-10.7,10.7H424.5c-5.9,0-10.7-4.8-10.7-10.7
	V156.4C413.8,150.5,418.6,145.7,424.5,145.7z"/>
<rect x="424.1" y="157" class="st0" width="283.7" height="158.7"/>
<circle class="st0" cx="565.9" cy="152" r="1.8"/>
<path class="st4" d="M718,328.3v18.6c0,5.9-4.8,10.7-10.7,10.7c0,0,0,0,0,0H424.5c-5.9,0-10.7-4.8-10.7-10.7c0,0,0,0,0,0v-18.6H718z
	"/>
<circle class="st0" cx="565.9" cy="343" r="6.8"/>
<polygon class="st1" points="555.3,415.2 555.3,418.8 362.1,418.8 362.1,415.9 362.3,415.2 367.1,402.3 551.3,402.3 "/>
<path class="st1" d="M629.6,411.7c-0.4,1.5-1.7,3.1-4.7,4.6c-10.8,5.4-32.7-1.4-32.7-1.4s-16.9-2.9-16.9-10.4c0.5-0.3,1-0.6,1.5-0.9
	c4.5-2.4,19.5-8.3,46.2,0.3c2,0.6,3.7,1.8,5.1,3.3C629.3,408.3,629.9,410,629.6,411.7z"/>
<path class="st2" d="M629.6,411.7c-13.2,5.1-24.9,5.4-37-2.9c-6.1-4.2-11.6-5.3-15.8-5.2c4.5-2.4,19.5-8.3,46.2,0.3
	c2,0.6,3.7,1.8,5.1,3.3C629.3,408.3,629.9,410,629.6,411.7z"/>
<ellipse class="st0" cx="613.1" cy="407.3" rx="4.7" ry="1.4"/>
<polygon class="st2" points="555.3,415.2 555.3,418.8 362.1,418.8 362.1,415.9 362.3,415.2 "/>
<circle class="st5" cx="412.5" cy="1072.6" r="38.2"/>
<path class="st5" d="M384.3,1091.7v60.4h62.4c0,0-8.1-50.3-4-65.4L384.3,1091.7z"/>
<path class="st2" d="M290.5,301.3l4.5-24.7c0,0-26.2,113.7-23.1,126.8s25.2,33.2,28.2,34.2s31.2-86.6,31.2-86.6L290.5,301.3z"/>
<path class="st6" d="M322.9,1190.4l-17.1,3c0,0-26.2,113.7-23.1,126.8c3,13.1,25.2,33.2,28.2,34.2s31.2-86.6,31.2-86.6L322.9,1190.4
	z"/>
<path class="st2" d="M495.8,307.4l8.6-16.6c0,0,12.1,113.7,4,124.8s-39.9,15.2-39.9,15.2l-0.4-82.6L495.8,307.4z"/>
<path class="st1" d="M319.9,1367.5c0,0-29.2-11.1-34.2,10.1s12.1,115.7,12.1,115.7s11.1,71.5,18.1,73.5c7,2,38.2,3,43.3-6
	c5-9.1-15.1-101.7-15.1-101.7l116.8-2c0,0-7,80.5-11.1,87.6c-4,7-4,31.2,0,31.2s48.3-2,51.3-8.1s20.1-141.9,20.1-141.9
	s14.1-47.3-2-44.3C503.1,1384.6,319.9,1367.5,319.9,1367.5z"/>
<path class="st3" d="M492,1563.8c0,0,10.1-7,15.1,0c5,7,7,15.1-15.1,27.2c-22.1,12.1-39.3,9.1-39.3,7v-29.2L492,1563.8z"/>
<g>
	<path class="st7" d="M678.3,265.1c-0.2,0-0.3,0.4-0.3,0.6c0,1.4-0.1,5.1-0.1,7.6c0,0.1,0.1,0.2,0.2,0.2c0.5,0,1.8,0.1,2.9,0.1
		c1.5,0,2.4-0.2,2.9-0.4c1.3-0.6,1.8-2,1.8-3.5c0-3.4-2.4-4.7-5.9-4.7C679.5,265,678.8,265,678.3,265.1L678.3,265.1z M687.2,280.7
		c0-3.4-2.5-5.4-7.1-5.4c-0.2,0-1.7,0-2,0c-0.1,0-0.2,0.1-0.2,0.2c0,2.5,0,6.4,0.1,7.9c0.1,0.7,0.6,1.6,1.1,1.9
		c0.6,0.3,2.1,0.4,3,0.4C684.8,285.8,687.2,284.3,687.2,280.7L687.2,280.7z M671.2,263.2c0.3,0,1.4,0.1,4.1,0.1c2.5,0,4.6-0.1,7-0.1
		c3,0,7.2,1.1,7.2,5.6c0,2.2-1.6,4-3.6,4.9c-0.1,0-0.1,0.1,0,0.1c2.9,0.7,5.5,2.5,5.5,6c0,3.3-2.1,5.5-5.1,6.8
		c-1.8,0.8-4.1,1.1-6.5,1.1c-1.8,0-6.5-0.2-9.2-0.1c-0.3-0.1,0.2-1.4,0.5-1.6c0.6,0,1.1-0.1,1.8-0.3c0.9-0.2,1-0.5,1.2-1.9
		c0.1-1.2,0.1-5.5,0.1-8.6c0-4.2,0-7.1,0-8.5c0-1.1-0.4-1.4-1.2-1.6c-0.6-0.1-1.6-0.2-2.4-0.3C670.4,264.6,670.9,263.4,671.2,263.2
		L671.2,263.2z M651.1,284.9c0.8,0.7,2.5,0.9,3.9,0.9c1.9,0,3.8-0.3,5.6-2c1.8-1.7,3.1-4.2,3.1-8.4c0-3.9-1.5-7.1-4.6-9
		c-1.7-1.1-4-1.5-6.5-1.5c-0.8,0-1.5,0-1.9,0.2c-0.1,0.1-0.3,0.4-0.3,0.6c-0.1,0.7-0.1,6.1-0.1,9.2c0,3.2,0,7.8,0.1,8.3
		C650.3,283.7,650.5,284.5,651.1,284.9L651.1,284.9z M643.2,263.2c0.7,0,3.2,0.1,4.4,0.1c2.2,0,3.8-0.1,7.9-0.1
		c3.5,0,6.4,0.9,8.5,2.7c2.5,2.2,3.9,5.2,3.9,8.9c0,5.3-2.4,8.3-4.8,10c-2.4,1.8-5.5,2.8-10,2.8c-2.4,0-6.4-0.1-9.8-0.1h0
		c-0.2-0.3,0.3-1.5,0.6-1.6c0.9-0.1,1.1-0.1,1.6-0.3c0.7-0.3,0.9-0.7,1-2c0.1-2.4,0.1-5.3,0.1-8.6c0-2.3,0-6.9,0-8.4
		c-0.1-1.2-0.6-1.5-1.7-1.7c-0.5-0.1-1.2-0.2-2.2-0.3C642.4,264.5,643,263.4,643.2,263.2L643.2,263.2z"/>
	<path class="st8" d="M601,286.2c-0.9-0.1-1.5-0.2-2.3-0.6c-0.1-0.1-0.3-0.4-0.3-0.6c-0.1-1.2-0.1-4.7-0.1-7c0-1.9-0.3-3.5-1.1-4.7
		c-0.9-1.3-2.3-2.1-4-2.1c-1.5,0-3.6,1-5.3,2.5c0,0-0.3,0.3-0.3-0.1c0-0.4,0.1-1.1,0.1-1.7c0-0.5-0.2-0.7-0.2-0.7
		c-1.1,0.6-4.2,1.3-5.4,1.4c-0.8,0.2-1,1-0.2,1.3h0c0.9,0.3,1.6,0.6,2.1,0.9c0.3,0.3,0.3,0.7,0.3,1c0,2.6,0,6.6-0.1,8.8
		c0,0.9-0.3,1.2-0.9,1.3l0.1,0c-0.5,0.1-0.9,0.2-1.5,0.3c-0.2,0.2-0.2,1.3,0,1.6c0.4,0,2.4-0.1,4.1-0.1c2.3,0,3.5,0.1,4.1,0.1
		c0.2-0.3,0.3-1.3,0.2-1.6c-0.7,0-1.1-0.1-1.6-0.2c-0.6-0.1-0.8-0.5-0.8-1.2c-0.1-1.8-0.1-5.7-0.1-8.4c0-0.7,0.2-1.1,0.4-1.3
		c0.8-0.7,2.1-1.2,3.2-1.2c1.1,0,1.8,0.3,2.4,0.8c0.8,0.6,1,1.5,1.1,2.2c0.2,1.5,0.1,4.5,0.1,7c0,1.4-0.1,1.7-0.6,1.9
		c-0.2,0.1-0.9,0.2-1.6,0.3c-0.2,0.2-0.2,1.3,0,1.6c1,0,2.2-0.1,3.9-0.1c2.2,0,3.6,0.1,4.1,0.1C601.1,287.5,601.2,286.5,601,286.2
		L601,286.2z M610.7,272.9c-1.8,0-3,1.4-3,3.7c0,2.3,1,4.9,3.9,4.9c0.5,0,1.4-0.2,1.8-0.7c0.7-0.6,1.1-1.9,1.1-3.2
		C614.5,274.7,613,272.9,610.7,272.9L610.7,272.9z M610.4,288.3c-0.7,0-1.2,0.2-1.5,0.4c-1.5,0.9-2.1,1.8-2.1,2.9
		c0,1,0.4,1.8,1.2,2.5c1,0.9,2.4,1.3,4.2,1.3c3.6,0,5.1-1.9,5.1-3.8c0-1.3-0.7-2.2-2-2.7C614.3,288.5,612.5,288.3,610.4,288.3
		L610.4,288.3z M610.7,297.4c-2.1,0-3.7-0.5-5-1.5c-1.3-1-1.8-2.4-1.8-3.4c0-0.3,0.1-1,0.7-1.7c0.4-0.4,1.2-1.2,3.2-2.6
		c0.1,0,0.1-0.1,0.1-0.1c0-0.1-0.1-0.1-0.1-0.2c-1.6-0.6-2.1-1.6-2.3-2.2v-0.1c0-0.2-0.1-0.4,0.2-0.6c0.2-0.2,0.6-0.4,1-0.6
		c0.6-0.3,1.2-0.7,1.6-1c0.1-0.1,0.1-0.1,0.1-0.2c0-0.1-0.1-0.1-0.1-0.2c-2.4-0.8-3.7-2.6-3.7-5.3c0-1.8,0.8-3.4,2.2-4.4
		c1-0.8,3.4-1.7,5-1.7h0.1c1.6,0,2.5,0.4,3.8,0.8c0.7,0.2,1.4,0.3,2.3,0.3c1.4,0,1.9-0.4,2.4-0.9c0,0.1,0.1,0.2,0.1,0.7
		c0,0.5-0.1,1.1-0.5,1.6c-0.3,0.4-0.9,0.7-1.5,0.7h-0.2c-0.6-0.1-0.9-0.1-0.9-0.1l-0.1,0.1c0,0.1,0,0.1,0,0.2l0,0.1
		c0.1,0.3,0.2,1.3,0.2,1.5c0,2.9-1.1,4.1-2.4,5c-1.2,0.9-2.5,1.4-4.1,1.6c0,0-0.2,0-0.5,0c-0.2,0-0.4,0-0.5,0h0c-0.3,0.1-1,0.4-1,1
		c0,0.5,0.3,1.1,1.8,1.3c0.3,0,0.6,0,1,0.1c2,0.1,4.5,0.3,5.6,0.7c1.6,0.6,2.6,2,2.6,3.7c0,2.6-1.8,5-4.9,6.5
		C613.8,297,612.3,297.4,610.7,297.4L610.7,297.4z M630.5,273.1c-0.7,0-1.4,0.2-1.9,0.5c-1.4,0.8-2.1,2.5-2.1,4.9
		c0,4.6,2.3,7.8,5.6,7.8c1,0,1.7-0.3,2.4-0.8c1-0.8,1.5-2.5,1.5-4.8C636.1,276.2,633.8,273.1,630.5,273.1L630.5,273.1z M631.1,288
		c-5.9,0-8-4.4-8-8.4c0-2.9,1.1-5,3.4-6.6c1.6-1,3.6-1.6,5.3-1.6c4.5,0,7.7,3.2,7.7,7.9c0,3.2-1.3,5.7-3.7,7.2
		C634.8,287.3,632.8,288,631.1,288L631.1,288L631.1,288z M569.1,273.1c-0.7,0-1.4,0.2-1.9,0.5c-1.4,0.8-2.1,2.5-2.1,4.9
		c0,4.6,2.3,7.8,5.6,7.8c1,0,1.7-0.3,2.4-0.8c1-0.8,1.5-2.5,1.5-4.8C574.7,276.2,572.4,273.1,569.1,273.1L569.1,273.1z M569.7,288
		c-5.9,0-8-4.4-8-8.4c0-2.9,1.1-5,3.4-6.6c1.6-1,3.6-1.6,5.3-1.6c4.5,0,7.7,3.2,7.7,7.9c0,3.2-1.3,5.7-3.7,7.2
		C573.4,287.3,571.4,288,569.7,288L569.7,288z M529.9,287.7c-0.1-0.1-0.1-0.4-0.1-0.8c0-0.3,0.1-0.5,0.1-0.5
		c0.7-0.1,1.1-0.2,1.5-0.3c0.7-0.2,1-0.6,1-1.4c0.1-2.1,0.1-6.1,0.1-8.8v-0.1c0-0.3,0-0.7-0.4-1c-0.6-0.3-1.2-0.7-2.1-0.9
		c-0.3-0.1-0.5-0.3-0.5-0.5c0-0.2,0.2-0.5,0.7-0.5c1.1-0.1,4.1-0.8,5.3-1.4c0.1,0.1,0.2,0.3,0.2,0.6l0,0.4c0,0.4-0.1,0.8-0.1,1.3
		c0,0.1,0.1,0.2,0.3,0.2c0.1,0,0.1,0,0.2-0.1c2.2-1.7,4.2-2.4,5.3-2.4c1.7,0,3,0.8,4,2.5c0.1,0.1,0.1,0.1,0.2,0.1
		c0.1,0,0.2,0,0.2-0.1c2.1-1.6,4.1-2.5,5.5-2.5c3.2,0,5.2,2.4,5.2,6.5c0,1.1,0,2.6,0,4c0,1.2,0,2.3,0,3.1c0,0.2,0.2,0.7,0.6,0.8
		c0.5,0.2,1.1,0.3,2,0.5h0c0.1,0.2-0.1,1.1-0.2,1.3c-0.2,0-0.5,0-0.9,0c-0.9,0-1.8-0.1-2.6-0.1c-2.2,0-3.3,0-4.4,0.1
		c-0.1-0.3-0.1-1.1,0-1.3c0.6-0.1,0.9-0.2,1.3-0.3c0.7-0.2,0.9-0.5,0.9-1.4c0-0.7,0.1-6.3-0.1-7.7c-0.2-1.4-1.3-3-3.6-3
		c-0.9,0-2.2,0.3-3.6,1.4c-0.1,0.1-0.1,0.2-0.1,0.3v0c0.1,0.7,0.1,1.6,0.1,2.9v2.3c0,1.6,0,3,0,4.1c0,0.8,0.5,0.9,0.8,1.1
		c0.2,0,0.3,0.1,0.5,0.1c0.3,0.1,0.6,0.1,1.1,0.2c0.1,0.1,0.1,0.6,0,1c0,0.2-0.1,0.3-0.1,0.3c-1.2,0-2.4-0.1-4.2-0.1
		c-0.5,0-1.4,0-2.2,0c-0.6,0-1.2,0-1.6,0c0-0.1-0.1-0.3-0.1-0.7c0-0.3,0.1-0.6,0.1-0.6c0.2,0,0.3-0.1,0.5-0.1
		c0.4-0.1,0.8-0.1,1.1-0.2c0.6-0.2,0.8-0.5,0.8-1.3c0.1-1.7,0.2-6.7,0-8c-0.4-2-1.6-3-3.4-3c-1.1,0-2.4,0.5-3.6,1.4
		c-0.2,0.1-0.3,0.5-0.3,0.8v2.1c0,2.5,0,5.6,0,7c0,0.4,0.2,0.9,1,1.1c0.2,0,0.5,0.1,0.8,0.1l0.6,0.1c0.1,0.2,0,1-0.1,1.3
		c-0.3,0-0.8,0-1.3,0c-0.7,0-1.7-0.1-2.7-0.1c-1.2,0-2.1,0-2.8,0.1C530.7,287.7,530.3,287.7,529.9,287.7L529.9,287.7z"/>
	<path class="st9" d="M511.6,296l-1.4-0.5c0,0,0.2-7.3-2.4-7.8c-1.7-2,0.3-85.7,6.5-0.3c0,0-2.2,1.1-2.5,2.9
		C511.3,292.2,511.6,296,511.6,296L511.6,296z"/>
	<path class="st10" d="M511.6,296l-1.4-0.5c0,0,0.2-7.3-2.4-7.8c-1.7-2,0.3-85.7,6.5-0.3c0,0-2.2,1.1-2.5,2.9
		C511.3,292.2,511.6,296,511.6,296L511.6,296z"/>
	<path class="st9" d="M512.4,289c0,0,12.5-8.2,9.6-25.3c-2.8-12.4-9.5-16.5-10.2-18.1c-0.8-1.1-1.6-3.1-1.6-3.1l0.5,34.6
		C510.7,277.2,509.6,287.7,512.4,289"/>
	<path class="st11" d="M512.4,289c0,0,12.5-8.2,9.6-25.3c-2.8-12.4-9.5-16.5-10.2-18.1c-0.8-1.1-1.6-3.1-1.6-3.1l0.5,34.6
		C510.7,277.2,509.6,287.7,512.4,289"/>
	<path class="st9" d="M509.4,289.5c0,0-11.7-8-11-22.1c0.7-14.1,8.9-21,10.6-22.3c1-1.1,1.1-1.5,1.1-2.6c0.7,1.6,0.6,23.4,0.7,26
		C511.1,278.3,510.2,287.6,509.4,289.5z"/>
	<path class="st12" d="M509.4,289.5c0,0-11.7-8-11-22.1c0.7-14.1,8.9-21,10.6-22.3c1-1.1,1.1-1.5,1.1-2.6c0.7,1.6,0.6,23.4,0.7,26
		C511.1,278.3,510.2,287.6,509.4,289.5z"/>
</g>
<path class="st3" d="M317.9,1560.8c0,0-10.1-7-15.1,0s-7,15.1,15.1,27.2s39.3,9.1,39.3,7v-29.2L317.9,1560.8z"/>
<path class="st3" d="M412.7,1024.4c-3.8-0.1-7.6,0.4-11.2,1.6c-2.8,1.1-5.5,2.5-8,4.2l-16.9,10.5c-2.9,1.3-4.8,4.2-4.8,7.4
	l-2.1,15.8c-0.5,4-1,8.3,0.8,11.9c1.5,3,4.3,5.1,6.7,7.5c3.7,3.9,6.3,8.8,7.2,14.1c1.2,6.6,0.4,14.5,5.7,18.8
	c2.8,2.3,6.7,2.7,10.3,2.9c9.9,0.6,19.9,0.2,29.7-1.1c1.6-0.1,3.1-0.5,4.5-1.3c1.8-1,2.9-2.9,3.9-4.7c3.8-6.4,7.7-13.2,7.6-20.7
	c0-3.7-1-7.6,0.8-10.9c0.9-1.4,1.9-2.7,3-3.9c2.2-3.1,2.6-7,3-10.8c1.1-12-0.1-21.1-8.9-29.6C435.7,1028.1,424,1024.5,412.7,1024.4z
	"/>
<path class="st6" d="M508.1,1173.3c0,0-59.4-29.2-59.4-31.2c0-2-6-15.1-10.1-15.1s-38.2-11.1-57.4,5l-2,13.1l-73.5,48.3l20.1,73.5
	c0,0,13.1,14.1,9.1,24.2s3,61.4,3,61.4l158-5v-68.4c0,0,5-16.1,8.1-21.1s0-20.1,0-20.1l24.2-30.2
	C528.2,1207.5,525.2,1179.3,508.1,1173.3z"/>
<polygon class="st3" points="318.8,1486.4 285.2,1657.2 302,1657.2 334.2,1489.2 "/>
<polygon class="st3" points="426.5,1500.4 447.5,1696.4 461.5,1696.4 448.9,1494.8 "/>
<polygon class="st3" points="483.9,1494.8 513.3,1625 527.3,1625 499.3,1492 "/>
<path class="st6" d="M515.1,1194.4l13.1,13.1c0,0,12.1,113.7,4,124.8c-8.1,11.1-39.9,15.2-39.9,15.2l-0.4-82.6L515.1,1194.4z"/>
<polygon class="st3" points="372,1494.8 367.8,1598.4 379,1598.4 387.4,1494.8 "/>
<path class="st13" d="M295,1468.2c0,0-22.4-149.8,40.6-154c63-4.2,152.6,0,152.6,0s51.8-4.2,36.4,154c0,0,14,46.2-112,42
	C286.6,1506,295,1468.2,295,1468.2z"/>
<path class="st13" d="M851,612.7c0,26.1-15.5,35.2-34.7,35.2s-34.7-9.1-34.7-35.2s34.7-59.3,34.7-59.3S851,586.5,851,612.7z"/>
<polygon class="st1" points="815.4,622 830.2,595 815.5,618.6 815.6,608.8 825.8,589.2 815.7,606.2 816,588.5 826.9,572.9 
	816,585.7 816.2,553.3 815.1,594.4 804.1,577.5 815,597.9 813.9,617.6 813.9,617.1 801.1,599.2 813.9,618.9 813.7,621.4 
	813.7,621.4 813.7,621.6 811.1,648 814.6,648 815,645.8 827.7,626.2 815.1,643.9 "/>
<polygon class="st3" points="838.5,704.5 797.1,704.5 786.4,644.2 846.8,644.2 "/>
<path class="st4" d="M156.8,296.3h62.3c6.5,0,11.8,5.3,11.8,11.8v77.1c0,6.5-5.3,11.8-11.8,11.8h-62.3c-6.5,0-11.8-5.3-11.8-11.8
	v-77.1C145,301.6,150.3,296.3,156.8,296.3z"/>
<rect x="158.3" y="311.9" class="st0" width="59.3" height="69.5"/>
<g>
	<path class="st14" d="M472.5,166.8c1.8-1.1,4.2-1.1,6,0c9.1,5.3,18.2,10.6,27.3,15.9c1.7,1,2.9,3,2.8,5v31.9c0,2.1-1.2,4.1-3,5.1
		c-9.1,5.3-18.1,10.6-27.2,15.8c-1.8,1.1-4.2,1-6-0.2c-2.7-1.6-5.4-3.2-8.1-4.9c-0.6-0.3-1.2-0.6-1.6-1.2c0.3-0.5,1-0.5,1.5-0.8
		c1.1-0.4,2.2-1,3.2-1.6c0.3-0.2,0.6-0.1,0.8,0.1c2.3,1.4,4.6,2.8,7,4.2c0.5,0.3,1-0.1,1.4-0.3c8.9-5.2,17.8-10.4,26.7-15.6
		c0.3-0.2,0.5-0.5,0.5-0.9c0-10.5,0-21.1,0-31.6c0-0.4-0.2-0.8-0.6-1c-9-5.3-18-10.5-27.1-15.8c-0.3-0.2-0.7-0.2-1.1,0
		c-9,5.3-18,10.5-27.1,15.8c-0.4,0.2-0.6,0.6-0.6,1c0,10.5,0,21.1,0,31.6c0,0.4,0.2,0.7,0.5,0.9c2.4,1.4,4.8,2.8,7.2,4.2
		c1.4,0.8,3,1.2,4.5,0.6c1.3-0.5,2.2-1.9,2.2-3.3c0-10.5,0-20.9,0-31.4c0-0.5,0.4-0.8,0.8-0.8c1.2,0,2.3,0,3.5,0
		c0.5,0,0.8,0.5,0.8,1c0,10.5,0,21.1,0,31.6c0,2.8-1.1,5.9-3.6,7.2c-3.1,1.7-6.9,1.3-10-0.3c-2.6-1.4-5.2-3-7.8-4.4
		c-1.8-1-3.1-3-3-5.1v-31.9c0-2.1,1.2-4.1,2.9-5.1C454.4,177.4,463.5,172.1,472.5,166.8z"/>
	<path class="st14" d="M480.4,188.9c3.9-0.3,8.2-0.2,11.7,1.9c2.8,1.5,4.3,4.8,4.3,7.9c-0.1,0.4-0.5,0.7-0.9,0.6c-1.1,0-2.3,0-3.4,0
		c-0.5,0-0.8-0.4-0.8-0.9c-0.3-1.5-1.1-3-2.5-3.7c-2.1-1.1-4.6-1-6.9-1c-1.7,0.1-3.5,0.2-4.9,1.3c-1.1,0.8-1.4,2.3-1,3.6
		c0.4,0.9,1.4,1.2,2.2,1.5c4.8,1.3,9.8,1.2,14.5,2.9c1.9,0.7,3.8,2,4.5,4.1c0.9,2.8,0.5,6.2-1.4,8.4c-1.6,1.9-3.8,2.9-6.1,3.4
		c-3,0.7-6.2,0.7-9.2,0.4c-2.9-0.3-5.9-1.1-8.1-3.2c-1.9-1.7-2.8-4.4-2.7-6.9c0-0.4,0.4-0.7,0.8-0.7c1.2,0,2.3,0,3.5,0
		c0.5,0,0.8,0.4,0.8,0.8c0.2,1.4,0.7,3,2,3.8c2.3,1.6,5.3,1.5,8,1.5c2.2-0.1,4.7-0.1,6.5-1.7c1-0.9,1.2-2.3,1-3.6
		c-0.3-1.1-1.3-1.5-2.3-1.9c-4.7-1.5-9.8-1-14.4-2.7c-1.9-0.7-3.7-2-4.4-4c-1-2.8-0.5-6.3,1.6-8.5
		C474.5,190,477.5,189.2,480.4,188.9L480.4,188.9z"/>
</g>
<g>
	<path class="st9" d="M163.7,346.6c0,3.7,3.6,7.1,9.2,9c-1.1,5.7-0.2,10.3,2.9,12c3.2,1.8,7.9,0.6,12.4-3.4
		c4.4,3.8,8.8,5.3,11.9,3.5c3.2-1.8,4.1-6.7,3-12.6c5.9-1.9,9.2-4.9,9.2-8.6c0-3.6-3.6-6.7-9.2-8.6c1.2-6.1,0.2-10.6-3-12.4
		c-3.1-1.8-7.6-0.2-12,3.6c-4.6-4.1-9.1-5.4-12.3-3.5c-3.1,1.8-4,6.5-2.9,12.2C167.5,339.9,163.7,343.1,163.7,346.6z"/>
	<path class="st15" d="M201.9,339.9c-0.5-0.2-0.9-0.3-1.4-0.4c0.1-0.3,0.1-0.6,0.2-0.9c1.1-5.1,0.4-9.2-2-10.6
		c-2.2-1.3-5.9,0.1-9.6,3.3c-0.4,0.3-0.7,0.6-1.1,1c-0.2-0.2-0.5-0.4-0.7-0.7c-3.9-3.5-7.8-4.9-10.1-3.6c-2.2,1.3-2.9,5.2-2,10
		c0.1,0.5,0.2,1,0.3,1.4c-0.6,0.2-1.1,0.3-1.6,0.5c-4.6,1.6-7.5,4.1-7.5,6.7c0,2.7,3.1,5.4,7.9,7c0.4,0.1,0.8,0.3,1.2,0.4
		c-0.1,0.5-0.2,1-0.3,1.5c-0.9,4.8-0.2,8.5,2,9.8c2.3,1.3,6.2,0,10-3.3c0.3-0.3,0.6-0.5,0.9-0.8c0.4,0.4,0.8,0.7,1.2,1.1
		c3.7,3.2,7.3,4.4,9.5,3.1c2.3-1.3,3.1-5.4,2.1-10.3c-0.1-0.4-0.2-0.8-0.3-1.2c0.3-0.1,0.5-0.2,0.8-0.3c4.9-1.6,8.2-4.3,8.2-7
		C209.6,344.1,206.6,341.5,201.9,339.9L201.9,339.9z"/>
	<path class="st9" d="M200.9,351.9c-0.2,0.1-0.5,0.2-0.7,0.2c-0.5-1.7-1.3-3.6-2.2-5.5c0.9-1.9,1.6-3.7,2.1-5.4
		c0.4,0.1,0.9,0.3,1.3,0.4c4,1.4,6.4,3.4,6.4,5C207.8,348.3,205.1,350.5,200.9,351.9L200.9,351.9z M199.1,355.4
		c0.4,2.2,0.5,4.2,0.2,5.7c-0.3,1.4-0.8,2.3-1.4,2.7c-1.4,0.8-4.3-0.2-7.4-2.9c-0.4-0.3-0.7-0.6-1.1-1c1.2-1.3,2.4-2.9,3.6-4.6
		c2.1-0.2,4.1-0.5,5.8-0.9C199,354.7,199,355.1,199.1,355.4L199.1,355.4z M181.2,363.6c-1.3,0.5-2.4,0.5-3,0.1
		c-1.4-0.8-1.9-3.8-1.2-7.9c0.1-0.5,0.2-1,0.3-1.4c1.8,0.4,3.7,0.7,5.8,0.8c1.2,1.7,2.4,3.2,3.7,4.6c-0.3,0.3-0.5,0.5-0.8,0.8
		C184.3,362.1,182.7,363.1,181.2,363.6L181.2,363.6z M175,351.9c-2.1-0.7-3.8-1.7-5-2.7c-1.1-0.9-1.6-1.8-1.6-2.6
		c0-1.6,2.3-3.6,6.2-4.9c0.5-0.2,1-0.3,1.5-0.5c0.5,1.8,1.2,3.6,2.1,5.4c-0.9,1.9-1.6,3.7-2.1,5.5C175.7,352.1,175.3,352,175,351.9z
		 M177.1,337.7c-0.8-4.1-0.3-7.3,1.1-8.1c1.4-0.8,4.6,0.4,8,3.3c0.2,0.2,0.4,0.4,0.6,0.6c-1.3,1.3-2.5,2.9-3.7,4.5
		c-2,0.2-4,0.5-5.8,0.9C177.2,338.6,177.1,338.1,177.1,337.7L177.1,337.7z M195.7,342.3c-0.4-0.7-0.9-1.4-1.3-2.2
		c1.4,0.2,2.7,0.4,3.9,0.7c-0.4,1.2-0.8,2.4-1.4,3.7C196.5,343.8,196.1,343,195.7,342.3L195.7,342.3z M188.1,334.9
		c0.8,0.9,1.7,1.9,2.5,3.1c-1.7-0.1-3.4-0.1-5.1,0C186.3,336.9,187.2,335.8,188.1,334.9L188.1,334.9z M180.4,342.3
		c-0.4,0.7-0.8,1.5-1.2,2.2c-0.5-1.3-1-2.5-1.4-3.7c1.2-0.3,2.5-0.5,3.9-0.7C181.3,340.8,180.9,341.6,180.4,342.3z M181.8,353.3
		c-1.4-0.2-2.7-0.4-4-0.6c0.4-1.2,0.9-2.5,1.4-3.8c0.4,0.8,0.8,1.5,1.2,2.2C180.9,351.8,181.3,352.6,181.8,353.3z M188.1,358.5
		c-0.9-0.9-1.7-2-2.6-3.1c0.8,0,1.7,0,2.5,0c0.9,0,1.7,0,2.6-0.1C189.8,356.6,189,357.6,188.1,358.5z M196.9,348.8
		c0.6,1.3,1.1,2.6,1.4,3.8c-1.3,0.3-2.6,0.5-4,0.7c0.5-0.7,0.9-1.5,1.3-2.2C196.1,350.3,196.5,349.6,196.9,348.8L196.9,348.8z
		 M194.1,350.2c-0.7,1.1-1.3,2.2-2.1,3.3c-1.3,0.1-2.6,0.1-3.9,0.1c-1.3,0-2.6,0-3.9-0.1c-0.7-1.1-1.4-2.2-2.1-3.3
		c-0.7-1.1-1.3-2.3-1.8-3.5c0.6-1.2,1.2-2.3,1.8-3.5v0c0.7-1.1,1.4-2.2,2.1-3.3c1.3-0.1,2.6-0.1,3.9-0.1c1.3,0,2.7,0.1,3.9,0.1
		c0.7,1.1,1.4,2.2,2.1,3.3c0.7,1.1,1.3,2.3,1.9,3.5C195.3,347.9,194.7,349,194.1,350.2L194.1,350.2z M197.9,329.6
		c1.4,0.8,2,4.2,1.1,8.6c-0.1,0.3-0.1,0.6-0.2,0.9c-1.8-0.4-3.7-0.7-5.8-0.9c-1.2-1.7-2.4-3.2-3.6-4.6c0.3-0.3,0.7-0.6,1-0.9
		C193.5,329.9,196.5,328.8,197.9,329.6L197.9,329.6z"/>
	<path class="st15" d="M188,342.8c2.1,0,3.9,1.7,3.9,3.9c0,2.1-1.7,3.9-3.9,3.9c-2.1,0-3.9-1.7-3.9-3.9
		C184.2,344.5,185.9,342.8,188,342.8"/>
</g>
<path class="st16" d="M533.9,216.3v-16.8h21v-1h-21v-15.3h22.3v-1h-23.3v35.1h23.5v-1H533.9L533.9,216.3z M575.3,192l-8.7,11.4
	l-8.5-11.4h-1.3l9.2,12.2L556,217.3h1.2l9.5-12.3l9.5,12.3h1.2l-10.1-13.1l9.2-12.2L575.3,192L575.3,192z M580.4,225.9v-15.7h0.1
	c0.6,2.3,1.8,4.1,3.5,5.5c1.7,1.4,3.9,2.1,6.6,2.1c1.7,0,3.3-0.4,4.6-1.1c1.3-0.7,2.5-1.7,3.4-2.9c0.9-1.2,1.6-2.6,2.1-4.2
	c0.5-1.6,0.7-3.3,0.7-5.1c0-1.9-0.2-3.7-0.7-5.3c-0.5-1.6-1.2-3-2.1-4.2c-0.9-1.2-2.1-2.1-3.4-2.8c-1.3-0.7-2.8-1-4.5-1
	c-1.3,0-2.5,0.2-3.6,0.6c-1.1,0.4-2.1,0.9-2.9,1.6c-0.9,0.7-1.6,1.5-2.2,2.4c-0.6,0.9-1.1,2-1.4,3.1h-0.1V192h-1v33.9H580.4
	L580.4,225.9z M590.6,216.9c-3.1,0-5.6-1.1-7.4-3.2c-1.9-2.1-2.8-5.2-2.8-9.1c0-1.6,0.2-3.2,0.7-4.7c0.5-1.5,1.1-2.8,2-3.9
	c0.9-1.1,1.9-2,3.2-2.7c1.3-0.7,2.7-1,4.3-1c1.6,0,3.1,0.3,4.3,1c1.2,0.7,2.2,1.5,3,2.7c0.8,1.1,1.4,2.4,1.8,3.9
	c0.4,1.5,0.6,3,0.6,4.6c0,1.5-0.2,2.9-0.6,4.4c-0.4,1.5-1,2.8-1.7,3.9c-0.8,1.2-1.8,2.1-3,2.8C593.8,216.5,592.3,216.9,590.6,216.9
	L590.6,216.9z M606.7,217.3V203c0-1.4,0.2-2.7,0.6-4c0.4-1.3,1-2.5,1.8-3.5c0.8-1,1.9-1.8,3.1-2.4c1.3-0.6,2.8-0.8,4.5-0.7v-1
	c-1.5,0-2.8,0.1-4,0.5c-1.1,0.4-2.1,0.9-2.9,1.5c-0.8,0.6-1.5,1.4-2,2.2c-0.5,0.8-0.9,1.7-1.1,2.7h-0.1V192h-1v25.3L606.7,217.3
	L606.7,217.3z M618,204.9h21.1c0.1-1.7-0.1-3.4-0.5-5c-0.4-1.6-1.1-3-2-4.3c-0.9-1.2-2.1-2.2-3.5-3c-1.4-0.8-3.1-1.1-5.1-1.1
	c-1.4,0-2.8,0.3-4.1,0.9c-1.3,0.6-2.5,1.4-3.5,2.6c-1,1.1-1.8,2.5-2.5,4.2c-0.6,1.6-0.9,3.5-0.9,5.6c0,1.9,0.2,3.6,0.6,5.2
	s1.1,3,2,4.2c0.9,1.2,2,2.1,3.4,2.8c1.4,0.7,3.1,1,5,0.9c2.9,0,5.3-0.8,7.3-2.4c2-1.6,3.1-3.9,3.5-6.9h-1c-0.4,2.8-1.5,4.9-3.3,6.3
	c-1.8,1.4-4,2.1-6.6,2.1c-1.8,0-3.3-0.3-4.6-0.9c-1.2-0.6-2.3-1.5-3-2.6c-0.8-1.1-1.4-2.4-1.7-3.8C618.2,208.1,618,206.6,618,204.9
	L618,204.9z M638.1,203.9H618c0.1-1.8,0.4-3.4,1-4.8c0.6-1.4,1.3-2.6,2.2-3.6c0.9-1,1.9-1.8,3.1-2.3c1.2-0.5,2.5-0.8,3.9-0.8
	c1.6,0,3.1,0.3,4.3,0.9c1.2,0.6,2.3,1.4,3.1,2.5c0.8,1,1.5,2.3,1.9,3.7C637.9,200.9,638.1,202.3,638.1,203.9L638.1,203.9z
	 M659.5,199.5h1c0-2.8-0.8-4.9-2.5-6.1c-1.6-1.3-3.9-1.9-6.7-1.9c-1.6,0-2.9,0.2-4,0.6c-1.1,0.4-2,0.9-2.7,1.5
	c-0.7,0.6-1.2,1.3-1.5,2.1c-0.3,0.8-0.4,1.5-0.4,2.2c0,1.4,0.2,2.5,0.7,3.3c0.5,0.8,1.3,1.5,2.3,1.9c0.7,0.3,1.5,0.6,2.5,0.9
	c0.9,0.3,2,0.5,3.2,0.8c1.1,0.3,2.1,0.5,3.2,0.8c1,0.3,2,0.6,2.8,1.1c0.8,0.4,1.5,1,2,1.7c0.5,0.7,0.8,1.6,0.8,2.7
	c0,1.1-0.3,2-0.8,2.8c-0.5,0.7-1.2,1.4-1.9,1.8c-0.8,0.5-1.7,0.8-2.6,1c-1,0.2-1.9,0.3-2.8,0.3c-3,0-5.3-0.7-6.9-2
	c-1.6-1.3-2.4-3.4-2.4-6.3h-1c0,3.2,0.9,5.5,2.6,7c1.7,1.5,4.3,2.2,7.6,2.2c1.1,0,2.2-0.1,3.3-0.4c1.1-0.2,2.1-0.6,2.9-1.2
	c0.9-0.5,1.6-1.3,2.1-2.2c0.5-0.9,0.8-2,0.8-3.2c0-1.2-0.2-2.2-0.7-2.9c-0.5-0.8-1.1-1.4-1.9-1.9c-0.8-0.5-1.6-0.9-2.6-1.2
	c-1-0.3-1.9-0.6-2.9-0.8c-1.2-0.3-2.4-0.6-3.6-0.9c-1-0.3-2-0.6-2.9-0.9c-0.9-0.4-1.5-0.9-2-1.5s-0.8-1.6-0.8-2.9
	c0-0.2,0.1-0.6,0.2-1.2c0.1-0.6,0.4-1.2,0.9-1.8c0.5-0.6,1.2-1.1,2.3-1.6c1-0.5,2.4-0.7,4.2-0.7c1.2,0,2.3,0.1,3.3,0.4
	c1,0.3,1.9,0.7,2.6,1.3c0.7,0.6,1.3,1.3,1.7,2.2C659.3,197.2,659.5,198.2,659.5,199.5L659.5,199.5z M682.3,199.5h1
	c0-2.8-0.8-4.9-2.5-6.1s-3.9-1.9-6.7-1.9c-1.6,0-2.9,0.2-4,0.6c-1.1,0.4-2,0.9-2.7,1.5c-0.7,0.6-1.2,1.3-1.5,2.1
	c-0.3,0.8-0.4,1.5-0.4,2.2c0,1.4,0.2,2.5,0.7,3.3c0.5,0.8,1.3,1.5,2.3,1.9c0.7,0.3,1.5,0.6,2.5,0.9c0.9,0.3,2,0.5,3.2,0.8
	c1.1,0.3,2.1,0.5,3.2,0.8c1,0.3,2,0.6,2.8,1.1c0.8,0.4,1.5,1,2,1.7c0.5,0.7,0.8,1.6,0.8,2.7c0,1.1-0.3,2-0.8,2.8
	c-0.5,0.7-1.2,1.4-1.9,1.8c-0.8,0.5-1.7,0.8-2.6,1c-1,0.2-1.9,0.3-2.8,0.3c-3,0-5.3-0.7-6.9-2c-1.6-1.3-2.4-3.4-2.4-6.3h-1
	c0,3.2,0.9,5.5,2.6,7c1.7,1.5,4.3,2.2,7.6,2.2c1.1,0,2.2-0.1,3.3-0.4c1.1-0.2,2.1-0.6,2.9-1.2c0.9-0.5,1.6-1.3,2.1-2.2
	c0.5-0.9,0.8-2,0.8-3.2c0-1.2-0.2-2.2-0.7-2.9c-0.5-0.8-1.1-1.4-1.9-1.9c-0.8-0.5-1.6-0.9-2.6-1.2c-1-0.3-1.9-0.6-2.9-0.8
	c-1.2-0.3-2.4-0.6-3.6-0.9c-1-0.3-2-0.6-2.9-0.9c-0.9-0.4-1.5-0.9-2-1.5c-0.5-0.7-0.8-1.6-0.8-2.9c0-0.2,0.1-0.6,0.2-1.2
	c0.1-0.6,0.4-1.2,0.9-1.8c0.5-0.6,1.2-1.1,2.3-1.6c1-0.5,2.4-0.7,4.2-0.7c1.2,0,2.3,0.1,3.3,0.4c1,0.3,1.9,0.7,2.6,1.3
	s1.3,1.3,1.7,2.2C682.1,197.2,682.3,198.2,682.3,199.5L682.3,199.5z"/>
<title>laravel and vue</title>
</svg>
