<?xml version="1.0" encoding="utf-8"?>
<!-- Generator: Adobe Illustrator 21.0.0, SVG Export Plug-In . SVG Version: 6.00 Build 0)  -->
<svg version="1.1" id="b33613f3-47b2-4fb7-9d5b-ca5c70d6619d"
	 xmlns="http://www.w3.org/2000/svg" xmlns:xlink="http://www.w3.org/1999/xlink" x="0px" y="0px" viewBox="0 0 863 826.7"
	 style="enable-background:new 0 0 863 826.7;" xml:space="preserve">
<style type="text/css">
	.st0{fill:#F2F2F2;}
	.st1{fill:#3F3D56;}
	.st2{opacity:0.1;enable-background:new    ;}
	.st3{fill:#FA744F;}
	.st4{fill:#2F2E41;}
	.st5{fill:#21BF73;}
	.st6{fill:#FFB9B9;}
	.st7{fill:#D0CDE1;}
	.st8{fill:#8E714E;}
	.st9{fill:#442D22;}
	.st10{fill:#FFFFFF;}
	.st11{fill:#A6A385;}
	.st12{fill:#499D4A;}
	.st13{fill:#58AA50;}
	.st14{fill:#8CC84B;}
	.st15{fill:#53C1DE;}
	.st16{fill:#222222;}
</style>
<title>laravel and vue</title>
<path class="st0" d="M740.1,309.4C695.2,132.8,540,5.3,357.8,0.2c-96.3-2.7-197.7,29.2-271.4,141C-45.5,341,94.5,479,192.1,544.7
	c47.2,31.8,89.6,70,126.2,113.5c65.9,78.2,192.8,175.5,343.8,23.1C771.6,570.8,770,427,740.1,309.4z"/>
<path class="st1" d="M862,702.7c0,43.4-189.2,124-427.5,124S0,751.1,0,707.7s196.2-38,434.5-38S862,659.4,862,702.7z"/>
<path class="st2" d="M862,702.7c0,43.4-189.2,124-427.5,124S0,751.1,0,707.7s196.2-38,434.5-38S862,659.4,862,702.7z"/>
<ellipse class="st1" cx="431.5" cy="707.2" rx="431.5" ry="78.5"/>
<path class="st3" d="M851,612.7c0,26.1-15.5,35.2-34.7,35.2s-34.7-9.1-34.7-35.2s34.7-59.3,34.7-59.3S851,586.5,851,612.7z"/>
<polygon class="st1" points="815.4,622 830.2,595 815.5,618.6 815.6,608.8 825.8,589.2 815.7,606.2 816,588.5 826.9,572.9 
	816,585.7 816.2,553.3 815.1,594.4 804.1,577.5 815,597.9 813.9,617.6 813.9,617.1 801.1,599.2 813.9,618.9 813.7,621.4 
	813.7,621.4 813.7,621.6 811.1,648 814.6,648 815,645.8 827.7,626.2 815.1,643.9 "/>
<polygon class="st4" points="838.5,704.5 797.1,704.5 786.4,644.2 846.8,644.2 "/>
<path class="st0" d="M740.1,316.2C695.2,139.6,540,12.1,357.8,7C261.5,4.3,160.1,36.2,86.4,148c-131.9,199.8,8.1,337.8,105.7,403.5
	c47.2,31.8,89.6,70,126.2,113.5c65.9,78.2,192.8,175.5,343.8,23.1C771.6,577.6,770,433.8,740.1,316.2z"/>
<path class="st1" d="M862,709.5c0,43.4-189.2,124-427.5,124S0,757.9,0,714.5s196.2-38,434.5-38S862,666.2,862,709.5z"/>
<path class="st2" d="M862,709.5c0,43.4-189.2,124-427.5,124S0,757.9,0,714.5s196.2-38,434.5-38S862,666.2,862,709.5z"/>
<ellipse class="st1" cx="431.5" cy="714" rx="431.5" ry="78.5"/>
<polygon class="st4" points="594.9,447 594.9,657 630,714.2 632.6,718.6 771.2,718.6 774,447 "/>
<polygon class="st2" points="594.9,447 594.9,657 630,714.2 632.1,447 "/>
<polygon class="st4" points="260.3,441.4 260.3,651.4 225.2,708.6 222.6,713 84,713 81.2,441.4 "/>
<polygon class="st2" points="260.3,441.4 260.3,651.4 225.2,708.6 223.1,441.4 "/>
<polygon class="st4" points="816,437.2 816,449.8 63,449.8 63,431.6 133,395.3 754.4,395.3 "/>
<polygon class="st2" points="816,437.2 816,449.8 63,449.8 63,431.6 "/>
<polygon class="st2" points="170.8,500.2 137.2,500.2 123.2,490.4 186.2,490.4 "/>
<polygon class="st2" points="170.8,540.8 137.2,540.8 123.2,531 186.2,531 "/>
<polygon class="st2" points="170.8,598.2 137.2,598.2 123.2,588.4 186.2,588.4 "/>
<polygon class="st2" points="170.8,655.6 137.2,655.6 123.2,645.8 186.2,645.8 "/>
<polygon class="st2" points="684.4,505.8 718,505.8 732,496 669,496 "/>
<polygon class="st2" points="684.4,546.4 718,546.4 732,536.6 669,536.6 "/>
<polygon class="st2" points="684.4,603.8 718,603.8 732,594 669,594 "/>
<polygon class="st2" points="684.4,661.2 718,661.2 732,651.4 669,651.4 "/>
<path class="st1" d="M532.5,360.2l-4.7,29.8c0,0-23,12.2-6.8,12.6s92.3,0,92.3,0s14.7,0-8.6-12.9l-4.7-31.2L532.5,360.2z"/>
<path class="st2" d="M517.8,402.3c3.1-2.5,6.5-4.8,10.1-6.7l4.7-29.8l67.5,0.1l4.7,29.4c3.8,2,7.5,4.4,10.8,7.1
	c3-0.7,6.3-3.2-10.8-12.7l-4.7-31.2l-67.5,1.8l-4.7,29.8C527.8,390,508.5,400.3,517.8,402.3z"/>
<path class="st5" d="M424.5,152.5h282.8c5.9,0,10.7,4.8,10.7,10.7v190.5c0,5.9-4.8,10.7-10.7,10.7H424.5c-5.9,0-10.7-4.8-10.7-10.7
	V163.2C413.8,157.3,418.6,152.5,424.5,152.5z"/>
<rect x="424.1" y="163.8" class="st0" width="283.7" height="158.7"/>
<circle class="st0" cx="565.9" cy="158.8" r="1.8"/>
<path class="st5" d="M718,335.1v18.6c0,5.9-4.8,10.7-10.7,10.7l0,0H424.5c-5.9,0-10.7-4.8-10.7-10.7l0,0v-18.6H718z"/>
<circle class="st0" cx="565.9" cy="349.8" r="6.8"/>
<polygon class="st1" points="555.3,422 555.3,425.6 362.1,425.6 362.1,422.7 362.3,422 367.1,409.1 551.3,409.1 "/>
<path class="st1" d="M629.6,418.5c-0.4,1.5-1.7,3.1-4.7,4.6c-10.8,5.4-32.7-1.4-32.7-1.4s-16.9-2.9-16.9-10.4c0.5-0.3,1-0.6,1.5-0.9
	c4.5-2.4,19.5-8.3,46.2,0.3c2,0.6,3.7,1.8,5.1,3.3C629.3,415.1,629.9,416.8,629.6,418.5z"/>
<path class="st2" d="M629.6,418.5c-13.2,5.1-24.9,5.4-37-2.9c-6.1-4.2-11.6-5.3-15.8-5.2c4.5-2.4,19.5-8.3,46.2,0.3
	c2,0.6,3.7,1.8,5.1,3.3C629.3,415.1,629.9,416.8,629.6,418.5z"/>
<ellipse class="st0" cx="613.1" cy="414.1" rx="4.7" ry="1.4"/>
<polygon class="st2" points="555.3,422 555.3,425.6 362.1,425.6 362.1,422.7 362.3,422 "/>
<circle class="st6" cx="394.6" cy="176.1" r="38.2"/>
<path class="st6" d="M366.4,195.2v60.4h62.4c0,0-8.1-50.3-4-65.4L366.4,195.2z"/>
<path class="st2" d="M290.5,308.1l4.5-24.7c0,0-26.2,113.7-23.1,126.8s25.2,33.2,28.2,34.2s31.2-86.6,31.2-86.6L290.5,308.1z"/>
<path class="st7" d="M305,293.9l-17.1,3c0,0-26.2,113.7-23.1,126.8c3,13.1,25.2,33.2,28.2,34.2s31.2-86.6,31.2-86.6L305,293.9z"/>
<path class="st2" d="M495.8,314.2l8.6-16.6c0,0,12.1,113.7,4,124.8s-39.9,15.2-39.9,15.2l-0.4-82.6L495.8,314.2z"/>
<path class="st1" d="M302,471c0,0-29.2-11.1-34.2,10.1s12.1,115.7,12.1,115.7s11.1,71.5,18.1,73.5s38.2,3,43.3-6
	c5-9.1-15.1-101.7-15.1-101.7l116.8-2c0,0-7,80.5-11.1,87.6c-4,7-4,31.2,0,31.2s48.3-2,51.3-8.1s20.1-141.9,20.1-141.9
	s14.1-47.3-2-44.3C485.2,488.1,302,471,302,471z"/>
<path class="st4" d="M474.1,667.3c0,0,10.1-7,15.1,0c5,7,7,15.1-15.1,27.2c-22.1,12.1-39.3,9.1-39.3,7v-29.2L474.1,667.3z"/>
<g>
	<path class="st8" d="M678.3,271.9c-0.2,0-0.3,0.4-0.3,0.6c0,1.4-0.1,5.1-0.1,7.6c0,0.1,0.1,0.2,0.2,0.2c0.5,0,1.8,0.1,2.9,0.1
		c1.5,0,2.4-0.2,2.9-0.4c1.3-0.6,1.8-2,1.8-3.5c0-3.4-2.4-4.7-5.9-4.7C679.5,271.8,678.8,271.8,678.3,271.9L678.3,271.9z
		 M687.2,287.5c0-3.4-2.5-5.4-7.1-5.4c-0.2,0-1.7,0-2,0c-0.1,0-0.2,0.1-0.2,0.2c0,2.5,0,6.4,0.1,7.9c0.1,0.7,0.6,1.6,1.1,1.9
		c0.6,0.3,2.1,0.4,3,0.4C684.8,292.6,687.2,291.1,687.2,287.5L687.2,287.5z M671.2,270c0.3,0,1.4,0.1,4.1,0.1c2.5,0,4.6-0.1,7-0.1
		c3,0,7.2,1.1,7.2,5.6c0,2.2-1.6,4-3.6,4.9c-0.1,0-0.1,0.1,0,0.1c2.9,0.7,5.5,2.5,5.5,6c0,3.3-2.1,5.5-5.1,6.8
		c-1.8,0.8-4.1,1.1-6.5,1.1c-1.8,0-6.5-0.2-9.2-0.1c-0.3-0.1,0.2-1.4,0.5-1.6c0.6,0,1.1-0.1,1.8-0.3c0.9-0.2,1-0.5,1.2-1.9
		c0.1-1.2,0.1-5.5,0.1-8.6c0-4.2,0-7.1,0-8.5c0-1.1-0.4-1.4-1.2-1.6c-0.6-0.1-1.6-0.2-2.4-0.3C670.4,271.4,670.9,270.2,671.2,270
		L671.2,270z M651.1,291.7c0.8,0.7,2.5,0.9,3.9,0.9c1.9,0,3.8-0.3,5.6-2s3.1-4.2,3.1-8.4c0-3.9-1.5-7.1-4.6-9
		c-1.7-1.1-4-1.5-6.5-1.5c-0.8,0-1.5,0-1.9,0.2c-0.1,0.1-0.3,0.4-0.3,0.6c-0.1,0.7-0.1,6.1-0.1,9.2c0,3.2,0,7.8,0.1,8.3
		C650.3,290.5,650.5,291.3,651.1,291.7L651.1,291.7z M643.2,270c0.7,0,3.2,0.1,4.4,0.1c2.2,0,3.8-0.1,7.9-0.1c3.5,0,6.4,0.9,8.5,2.7
		c2.5,2.2,3.9,5.2,3.9,8.9c0,5.3-2.4,8.3-4.8,10c-2.4,1.8-5.5,2.8-10,2.8c-2.4,0-6.4-0.1-9.8-0.1l0,0c-0.2-0.3,0.3-1.5,0.6-1.6
		c0.9-0.1,1.1-0.1,1.6-0.3c0.7-0.3,0.9-0.7,1-2c0.1-2.4,0.1-5.3,0.1-8.6c0-2.3,0-6.9,0-8.4c-0.1-1.2-0.6-1.5-1.7-1.7
		c-0.5-0.1-1.2-0.2-2.2-0.3C642.4,271.3,643,270.2,643.2,270L643.2,270z"/>
	<path class="st9" d="M601,293c-0.9-0.1-1.5-0.2-2.3-0.6c-0.1-0.1-0.3-0.4-0.3-0.6c-0.1-1.2-0.1-4.7-0.1-7c0-1.9-0.3-3.5-1.1-4.7
		c-0.9-1.3-2.3-2.1-4-2.1c-1.5,0-3.6,1-5.3,2.5c0,0-0.3,0.3-0.3-0.1s0.1-1.1,0.1-1.7c0-0.5-0.2-0.7-0.2-0.7
		c-1.1,0.6-4.2,1.3-5.4,1.4c-0.8,0.2-1,1-0.2,1.3l0,0c0.9,0.3,1.6,0.6,2.1,0.9c0.3,0.3,0.3,0.7,0.3,1c0,2.6,0,6.6-0.1,8.8
		c0,0.9-0.3,1.2-0.9,1.3h0.1c-0.5,0.1-0.9,0.2-1.5,0.3c-0.2,0.2-0.2,1.3,0,1.6c0.4,0,2.4-0.1,4.1-0.1c2.3,0,3.5,0.1,4.1,0.1
		c0.2-0.3,0.3-1.3,0.2-1.6c-0.7,0-1.1-0.1-1.6-0.2c-0.6-0.1-0.8-0.5-0.8-1.2c-0.1-1.8-0.1-5.7-0.1-8.4c0-0.7,0.2-1.1,0.4-1.3
		c0.8-0.7,2.1-1.2,3.2-1.2c1.1,0,1.8,0.3,2.4,0.8c0.8,0.6,1,1.5,1.1,2.2c0.2,1.5,0.1,4.5,0.1,7c0,1.4-0.1,1.7-0.6,1.9
		c-0.2,0.1-0.9,0.2-1.6,0.3c-0.2,0.2-0.2,1.3,0,1.6c1,0,2.2-0.1,3.9-0.1c2.2,0,3.6,0.1,4.1,0.1C601.1,294.3,601.2,293.3,601,293
		L601,293z M610.7,279.7c-1.8,0-3,1.4-3,3.7c0,2.3,1,4.9,3.9,4.9c0.5,0,1.4-0.2,1.8-0.7c0.7-0.6,1.1-1.9,1.1-3.2
		C614.5,281.5,613,279.7,610.7,279.7L610.7,279.7z M610.4,295.1c-0.7,0-1.2,0.2-1.5,0.4c-1.5,0.9-2.1,1.8-2.1,2.9
		c0,1,0.4,1.8,1.2,2.5c1,0.9,2.4,1.3,4.2,1.3c3.6,0,5.1-1.9,5.1-3.8c0-1.3-0.7-2.2-2-2.7C614.3,295.3,612.5,295.1,610.4,295.1
		L610.4,295.1z M610.7,304.2c-2.1,0-3.7-0.5-5-1.5s-1.8-2.4-1.8-3.4c0-0.3,0.1-1,0.7-1.7c0.4-0.4,1.2-1.2,3.2-2.6
		c0.1,0,0.1-0.1,0.1-0.1c0-0.1-0.1-0.1-0.1-0.2c-1.6-0.6-2.1-1.6-2.3-2.2v-0.1c0-0.2-0.1-0.4,0.2-0.6c0.2-0.2,0.6-0.4,1-0.6
		c0.6-0.3,1.2-0.7,1.6-1c0.1-0.1,0.1-0.1,0.1-0.2s-0.1-0.1-0.1-0.2c-2.4-0.8-3.7-2.6-3.7-5.3c0-1.8,0.8-3.4,2.2-4.4
		c1-0.8,3.4-1.7,5-1.7h0.1c1.6,0,2.5,0.4,3.8,0.8c0.7,0.2,1.4,0.3,2.3,0.3c1.4,0,1.9-0.4,2.4-0.9c0,0.1,0.1,0.2,0.1,0.7
		s-0.1,1.1-0.5,1.6c-0.3,0.4-0.9,0.7-1.5,0.7h-0.2c-0.6-0.1-0.9-0.1-0.9-0.1l-0.1,0.1c0,0.1,0,0.1,0,0.2v0.1
		c0.1,0.3,0.2,1.3,0.2,1.5c0,2.9-1.1,4.1-2.4,5c-1.2,0.9-2.5,1.4-4.1,1.6c0,0-0.2,0-0.5,0c-0.2,0-0.4,0-0.5,0l0,0
		c-0.3,0.1-1,0.4-1,1c0,0.5,0.3,1.1,1.8,1.3c0.3,0,0.6,0,1,0.1c2,0.1,4.5,0.3,5.6,0.7c1.6,0.6,2.6,2,2.6,3.7c0,2.6-1.8,5-4.9,6.5
		C613.8,303.8,612.3,304.2,610.7,304.2L610.7,304.2z M630.5,279.9c-0.7,0-1.4,0.2-1.9,0.5c-1.4,0.8-2.1,2.5-2.1,4.9
		c0,4.6,2.3,7.8,5.6,7.8c1,0,1.7-0.3,2.4-0.8c1-0.8,1.5-2.5,1.5-4.8C636.1,283,633.8,279.9,630.5,279.9L630.5,279.9z M631.1,294.8
		c-5.9,0-8-4.4-8-8.4c0-2.9,1.1-5,3.4-6.6c1.6-1,3.6-1.6,5.3-1.6c4.5,0,7.7,3.2,7.7,7.9c0,3.2-1.3,5.7-3.7,7.2
		C634.8,294.1,632.8,294.8,631.1,294.8L631.1,294.8L631.1,294.8z M569.1,279.9c-0.7,0-1.4,0.2-1.9,0.5c-1.4,0.8-2.1,2.5-2.1,4.9
		c0,4.6,2.3,7.8,5.6,7.8c1,0,1.7-0.3,2.4-0.8c1-0.8,1.5-2.5,1.5-4.8C574.7,283,572.4,279.9,569.1,279.9L569.1,279.9z M569.7,294.8
		c-5.9,0-8-4.4-8-8.4c0-2.9,1.1-5,3.4-6.6c1.6-1,3.6-1.6,5.3-1.6c4.5,0,7.7,3.2,7.7,7.9c0,3.2-1.3,5.7-3.7,7.2
		C573.4,294.1,571.4,294.8,569.7,294.8L569.7,294.8z M529.9,294.5c-0.1-0.1-0.1-0.4-0.1-0.8c0-0.3,0.1-0.5,0.1-0.5
		c0.7-0.1,1.1-0.2,1.5-0.3c0.7-0.2,1-0.6,1-1.4c0.1-2.1,0.1-6.1,0.1-8.8v-0.1c0-0.3,0-0.7-0.4-1c-0.6-0.3-1.2-0.7-2.1-0.9
		c-0.3-0.1-0.5-0.3-0.5-0.5s0.2-0.5,0.7-0.5c1.1-0.1,4.1-0.8,5.3-1.4c0.1,0.1,0.2,0.3,0.2,0.6v0.4c0,0.4-0.1,0.8-0.1,1.3
		c0,0.1,0.1,0.2,0.3,0.2c0.1,0,0.1,0,0.2-0.1c2.2-1.7,4.2-2.4,5.3-2.4c1.7,0,3,0.8,4,2.5c0.1,0.1,0.1,0.1,0.2,0.1
		c0.1,0,0.2,0,0.2-0.1c2.1-1.6,4.1-2.5,5.5-2.5c3.2,0,5.2,2.4,5.2,6.5c0,1.1,0,2.6,0,4c0,1.2,0,2.3,0,3.1c0,0.2,0.2,0.7,0.6,0.8
		c0.5,0.2,1.1,0.3,2,0.5l0,0c0.1,0.2-0.1,1.1-0.2,1.3c-0.2,0-0.5,0-0.9,0c-0.9,0-1.8-0.1-2.6-0.1c-2.2,0-3.3,0-4.4,0.1
		c-0.1-0.3-0.1-1.1,0-1.3c0.6-0.1,0.9-0.2,1.3-0.3c0.7-0.2,0.9-0.5,0.9-1.4c0-0.7,0.1-6.3-0.1-7.7c-0.2-1.4-1.3-3-3.6-3
		c-0.9,0-2.2,0.3-3.6,1.4c-0.1,0.1-0.1,0.2-0.1,0.3l0,0c0.1,0.7,0.1,1.6,0.1,2.9v2.3c0,1.6,0,3,0,4.1c0,0.8,0.5,0.9,0.8,1.1
		c0.2,0,0.3,0.1,0.5,0.1c0.3,0.1,0.6,0.1,1.1,0.2c0.1,0.1,0.1,0.6,0,1c0,0.2-0.1,0.3-0.1,0.3c-1.2,0-2.4-0.1-4.2-0.1
		c-0.5,0-1.4,0-2.2,0c-0.6,0-1.2,0-1.6,0c0-0.1-0.1-0.3-0.1-0.7c0-0.3,0.1-0.6,0.1-0.6c0.2,0,0.3-0.1,0.5-0.1
		c0.4-0.1,0.8-0.1,1.1-0.2c0.6-0.2,0.8-0.5,0.8-1.3c0.1-1.7,0.2-6.7,0-8c-0.4-2-1.6-3-3.4-3c-1.1,0-2.4,0.5-3.6,1.4
		c-0.2,0.1-0.3,0.5-0.3,0.8v2.1c0,2.5,0,5.6,0,7c0,0.4,0.2,0.9,1,1.1c0.2,0,0.5,0.1,0.8,0.1l0.6,0.1c0.1,0.2,0,1-0.1,1.3
		c-0.3,0-0.8,0-1.3,0c-0.7,0-1.7-0.1-2.7-0.1c-1.2,0-2.1,0-2.8,0.1C530.7,294.5,530.3,294.5,529.9,294.5L529.9,294.5z"/>
	<path class="st10" d="M511.6,302.8l-1.4-0.5c0,0,0.2-7.3-2.4-7.8c-1.7-2,0.3-85.7,6.5-0.3c0,0-2.2,1.1-2.5,2.9
		C511.3,299,511.6,302.8,511.6,302.8L511.6,302.8z"/>
	<path class="st11" d="M511.6,302.8l-1.4-0.5c0,0,0.2-7.3-2.4-7.8c-1.7-2,0.3-85.7,6.5-0.3c0,0-2.2,1.1-2.5,2.9
		C511.3,299,511.6,302.8,511.6,302.8L511.6,302.8z"/>
	<path class="st10" d="M512.4,295.8c0,0,12.5-8.2,9.6-25.3c-2.8-12.4-9.5-16.5-10.2-18.1c-0.8-1.1-1.6-3.1-1.6-3.1l0.5,34.6
		C510.7,284,509.6,294.5,512.4,295.8"/>
	<path class="st12" d="M512.4,295.8c0,0,12.5-8.2,9.6-25.3c-2.8-12.4-9.5-16.5-10.2-18.1c-0.8-1.1-1.6-3.1-1.6-3.1l0.5,34.6
		C510.7,284,509.6,294.5,512.4,295.8"/>
	<path class="st10" d="M509.4,296.3c0,0-11.7-8-11-22.1s8.9-21,10.6-22.3c1-1.1,1.1-1.5,1.1-2.6c0.7,1.6,0.6,23.4,0.7,26
		C511.1,285.1,510.2,294.4,509.4,296.3z"/>
	<path class="st13" d="M509.4,296.3c0,0-11.7-8-11-22.1s8.9-21,10.6-22.3c1-1.1,1.1-1.5,1.1-2.6c0.7,1.6,0.6,23.4,0.7,26
		C511.1,285.1,510.2,294.4,509.4,296.3z"/>
</g>
<path class="st4" d="M300,664.3c0,0-10.1-7-15.1,0s-7,15.1,15.1,27.2s39.3,9.1,39.3,7v-29.2L300,664.3z"/>
<path class="st4" d="M394.8,127.9c-3.8-0.1-7.6,0.4-11.2,1.6c-2.8,1.1-5.5,2.5-8,4.2l-16.9,10.5c-2.9,1.3-4.8,4.2-4.8,7.4l-2.1,15.8
	c-0.5,4-1,8.3,0.8,11.9c1.5,3,4.3,5.1,6.7,7.5c3.7,3.9,6.3,8.8,7.2,14.1c1.2,6.6,0.4,14.5,5.7,18.8c2.8,2.3,6.7,2.7,10.3,2.9
	c9.9,0.6,19.9,0.2,29.7-1.1c1.6-0.1,3.1-0.5,4.5-1.3c1.8-1,2.9-2.9,3.9-4.7c3.8-6.4,7.7-13.2,7.6-20.7c0-3.7-1-7.6,0.8-10.9
	c0.9-1.4,1.9-2.7,3-3.9c2.2-3.1,2.6-7,3-10.8c1.1-12-0.1-21.1-8.9-29.6C417.8,131.6,406.1,128,394.8,127.9z"/>
<path class="st7" d="M490.2,276.8c0,0-59.4-29.2-59.4-31.2s-6-15.1-10.1-15.1s-38.2-11.1-57.4,5l-2,13.1l-73.5,48.3l20.1,73.5
	c0,0,13.1,14.1,9.1,24.2s3,61.4,3,61.4l158-5v-68.4c0,0,5-16.1,8.1-21.1s0-20.1,0-20.1l24.2-30.2C510.3,311,507.3,282.8,490.2,276.8
	z"/>
<polygon class="st4" points="300.9,589.9 267.3,760.7 284.1,760.7 316.3,592.7 "/>
<polygon class="st4" points="408.6,603.9 429.6,799.9 443.6,799.9 431,598.3 "/>
<polygon class="st4" points="466,598.3 495.4,728.5 509.4,728.5 481.4,595.5 "/>
<path class="st7" d="M497.2,297.9l13.1,13.1c0,0,12.1,113.7,4,124.8c-8.1,11.1-39.9,15.2-39.9,15.2l-0.4-82.6L497.2,297.9z"/>
<polygon class="st4" points="354.1,598.3 349.9,701.9 361.1,701.9 369.5,598.3 "/>
<path class="st3" d="M277.1,571.7c0,0-22.4-149.8,40.6-154s152.6,0,152.6,0s51.8-4.2,36.4,154c0,0,14,46.2-112,42
	S277.1,571.7,277.1,571.7z"/>
<path class="st3" d="M851,619.5c0,26.1-15.5,35.2-34.7,35.2s-34.7-9.1-34.7-35.2s34.7-59.3,34.7-59.3S851,593.3,851,619.5z"/>
<polygon class="st1" points="815.4,628.8 830.2,601.8 815.5,625.4 815.6,615.6 825.8,596 815.7,613 816,595.3 826.9,579.7 
	816,592.5 816.2,560.1 815.1,601.2 804.1,584.3 815,604.7 813.9,624.4 813.9,623.9 801.1,606 813.9,625.7 813.7,628.2 813.7,628.2 
	813.7,628.4 811.1,654.8 814.6,654.8 815,652.6 827.7,633 815.1,650.7 "/>
<polygon class="st4" points="838.5,711.3 797.1,711.3 786.4,651 846.8,651 "/>
<path class="st5" d="M156.8,303.1h62.3c6.5,0,11.8,5.3,11.8,11.8V392c0,6.5-5.3,11.8-11.8,11.8h-62.3c-6.5,0-11.8-5.3-11.8-11.8
	v-77.1C145,308.4,150.3,303.1,156.8,303.1z"/>
<rect x="158.3" y="318.7" class="st0" width="59.3" height="69.5"/>
<g>
	<path class="st14" d="M472.5,173.6c1.8-1.1,4.2-1.1,6,0c9.1,5.3,18.2,10.6,27.3,15.9c1.7,1,2.9,3,2.8,5v31.9c0,2.1-1.2,4.1-3,5.1
		c-9.1,5.3-18.1,10.6-27.2,15.8c-1.8,1.1-4.2,1-6-0.2c-2.7-1.6-5.4-3.2-8.1-4.9c-0.6-0.3-1.2-0.6-1.6-1.2c0.3-0.5,1-0.5,1.5-0.8
		c1.1-0.4,2.2-1,3.2-1.6c0.3-0.2,0.6-0.1,0.8,0.1c2.3,1.4,4.6,2.8,7,4.2c0.5,0.3,1-0.1,1.4-0.3c8.9-5.2,17.8-10.4,26.7-15.6
		c0.3-0.2,0.5-0.5,0.5-0.9c0-10.5,0-21.1,0-31.6c0-0.4-0.2-0.8-0.6-1c-9-5.3-18-10.5-27.1-15.8c-0.3-0.2-0.7-0.2-1.1,0
		c-9,5.3-18,10.5-27.1,15.8c-0.4,0.2-0.6,0.6-0.6,1c0,10.5,0,21.1,0,31.6c0,0.4,0.2,0.7,0.5,0.9c2.4,1.4,4.8,2.8,7.2,4.2
		c1.4,0.8,3,1.2,4.5,0.6c1.3-0.5,2.2-1.9,2.2-3.3c0-10.5,0-20.9,0-31.4c0-0.5,0.4-0.8,0.8-0.8c1.2,0,2.3,0,3.5,0
		c0.5,0,0.8,0.5,0.8,1c0,10.5,0,21.1,0,31.6c0,2.8-1.1,5.9-3.6,7.2c-3.1,1.7-6.9,1.3-10-0.3c-2.6-1.4-5.2-3-7.8-4.4
		c-1.8-1-3.1-3-3-5.1v-31.9c0-2.1,1.2-4.1,2.9-5.1C454.4,184.2,463.5,178.9,472.5,173.6z"/>
	<path class="st14" d="M480.4,195.7c3.9-0.3,8.2-0.2,11.7,1.9c2.8,1.5,4.3,4.8,4.3,7.9c-0.1,0.4-0.5,0.7-0.9,0.6c-1.1,0-2.3,0-3.4,0
		c-0.5,0-0.8-0.4-0.8-0.9c-0.3-1.5-1.1-3-2.5-3.7c-2.1-1.1-4.6-1-6.9-1c-1.7,0.1-3.5,0.2-4.9,1.3c-1.1,0.8-1.4,2.3-1,3.6
		c0.4,0.9,1.4,1.2,2.2,1.5c4.8,1.3,9.8,1.2,14.5,2.9c1.9,0.7,3.8,2,4.5,4.1c0.9,2.8,0.5,6.2-1.4,8.4c-1.6,1.9-3.8,2.9-6.1,3.4
		c-3,0.7-6.2,0.7-9.2,0.4c-2.9-0.3-5.9-1.1-8.1-3.2c-1.9-1.7-2.8-4.4-2.7-6.9c0-0.4,0.4-0.7,0.8-0.7c1.2,0,2.3,0,3.5,0
		c0.5,0,0.8,0.4,0.8,0.8c0.2,1.4,0.7,3,2,3.8c2.3,1.6,5.3,1.5,8,1.5c2.2-0.1,4.7-0.1,6.5-1.7c1-0.9,1.2-2.3,1-3.6
		c-0.3-1.1-1.3-1.5-2.3-1.9c-4.7-1.5-9.8-1-14.4-2.7c-1.9-0.7-3.7-2-4.4-4c-1-2.8-0.5-6.3,1.6-8.5
		C474.5,196.8,477.5,196,480.4,195.7L480.4,195.7z"/>
</g>
<g>
	<path class="st10" d="M163.7,353.4c0,3.7,3.6,7.1,9.2,9c-1.1,5.7-0.2,10.3,2.9,12c3.2,1.8,7.9,0.6,12.4-3.4
		c4.4,3.8,8.8,5.3,11.9,3.5c3.2-1.8,4.1-6.7,3-12.6c5.9-1.9,9.2-4.9,9.2-8.6c0-3.6-3.6-6.7-9.2-8.6c1.2-6.1,0.2-10.6-3-12.4
		c-3.1-1.8-7.6-0.2-12,3.6c-4.6-4.1-9.1-5.4-12.3-3.5c-3.1,1.8-4,6.5-2.9,12.2C167.5,346.7,163.7,349.9,163.7,353.4z"/>
	<path class="st15" d="M201.9,346.7c-0.5-0.2-0.9-0.3-1.4-0.4c0.1-0.3,0.1-0.6,0.2-0.9c1.1-5.1,0.4-9.2-2-10.6
		c-2.2-1.3-5.9,0.1-9.6,3.3c-0.4,0.3-0.7,0.6-1.1,1c-0.2-0.2-0.5-0.4-0.7-0.7c-3.9-3.5-7.8-4.9-10.1-3.6c-2.2,1.3-2.9,5.2-2,10
		c0.1,0.5,0.2,1,0.3,1.4c-0.6,0.2-1.1,0.3-1.6,0.5c-4.6,1.6-7.5,4.1-7.5,6.7c0,2.7,3.1,5.4,7.9,7c0.4,0.1,0.8,0.3,1.2,0.4
		c-0.1,0.5-0.2,1-0.3,1.5c-0.9,4.8-0.2,8.5,2,9.8c2.3,1.3,6.2,0,10-3.3c0.3-0.3,0.6-0.5,0.9-0.8c0.4,0.4,0.8,0.7,1.2,1.1
		c3.7,3.2,7.3,4.4,9.5,3.1c2.3-1.3,3.1-5.4,2.1-10.3c-0.1-0.4-0.2-0.8-0.3-1.2c0.3-0.1,0.5-0.2,0.8-0.3c4.9-1.6,8.2-4.3,8.2-7
		C209.6,350.9,206.6,348.3,201.9,346.7L201.9,346.7z"/>
	<path class="st10" d="M200.9,358.7c-0.2,0.1-0.5,0.2-0.7,0.2c-0.5-1.7-1.3-3.6-2.2-5.5c0.9-1.9,1.6-3.7,2.1-5.4
		c0.4,0.1,0.9,0.3,1.3,0.4c4,1.4,6.4,3.4,6.4,5C207.8,355.1,205.1,357.3,200.9,358.7L200.9,358.7z M199.1,362.2
		c0.4,2.2,0.5,4.2,0.2,5.7c-0.3,1.4-0.8,2.3-1.4,2.7c-1.4,0.8-4.3-0.2-7.4-2.9c-0.4-0.3-0.7-0.6-1.1-1c1.2-1.3,2.4-2.9,3.6-4.6
		c2.1-0.2,4.1-0.5,5.8-0.9C199,361.5,199,361.9,199.1,362.2L199.1,362.2z M181.2,370.4c-1.3,0.5-2.4,0.5-3,0.1
		c-1.4-0.8-1.9-3.8-1.2-7.9c0.1-0.5,0.2-1,0.3-1.4c1.8,0.4,3.7,0.7,5.8,0.8c1.2,1.7,2.4,3.2,3.7,4.6c-0.3,0.3-0.5,0.5-0.8,0.8
		C184.3,368.9,182.7,369.9,181.2,370.4L181.2,370.4z M175,358.7c-2.1-0.7-3.8-1.7-5-2.7c-1.1-0.9-1.6-1.8-1.6-2.6
		c0-1.6,2.3-3.6,6.2-4.9c0.5-0.2,1-0.3,1.5-0.5c0.5,1.8,1.2,3.6,2.1,5.4c-0.9,1.9-1.6,3.7-2.1,5.5
		C175.7,358.9,175.3,358.8,175,358.7z M177.1,344.5c-0.8-4.1-0.3-7.3,1.1-8.1c1.4-0.8,4.6,0.4,8,3.3c0.2,0.2,0.4,0.4,0.6,0.6
		c-1.3,1.3-2.5,2.9-3.7,4.5c-2,0.2-4,0.5-5.8,0.9C177.2,345.4,177.1,344.9,177.1,344.5L177.1,344.5z M195.7,349.1
		c-0.4-0.7-0.9-1.4-1.3-2.2c1.4,0.2,2.7,0.4,3.9,0.7c-0.4,1.2-0.8,2.4-1.4,3.7C196.5,350.6,196.1,349.8,195.7,349.1L195.7,349.1z
		 M188.1,341.7c0.8,0.9,1.7,1.9,2.5,3.1c-1.7-0.1-3.4-0.1-5.1,0C186.3,343.7,187.2,342.6,188.1,341.7L188.1,341.7z M180.4,349.1
		c-0.4,0.7-0.8,1.5-1.2,2.2c-0.5-1.3-1-2.5-1.4-3.7c1.2-0.3,2.5-0.5,3.9-0.7C181.3,347.6,180.9,348.4,180.4,349.1z M181.8,360.1
		c-1.4-0.2-2.7-0.4-4-0.6c0.4-1.2,0.9-2.5,1.4-3.8c0.4,0.8,0.8,1.5,1.2,2.2C180.9,358.6,181.3,359.4,181.8,360.1z M188.1,365.3
		c-0.9-0.9-1.7-2-2.6-3.1c0.8,0,1.7,0,2.5,0c0.9,0,1.7,0,2.6-0.1C189.8,363.4,189,364.4,188.1,365.3z M196.9,355.6
		c0.6,1.3,1.1,2.6,1.4,3.8c-1.3,0.3-2.6,0.5-4,0.7c0.5-0.7,0.9-1.5,1.3-2.2C196.1,357.1,196.5,356.4,196.9,355.6L196.9,355.6z
		 M194.1,357c-0.7,1.1-1.3,2.2-2.1,3.3c-1.3,0.1-2.6,0.1-3.9,0.1c-1.3,0-2.6,0-3.9-0.1c-0.7-1.1-1.4-2.2-2.1-3.3
		c-0.7-1.1-1.3-2.3-1.8-3.5c0.6-1.2,1.2-2.3,1.8-3.5l0,0c0.7-1.1,1.4-2.2,2.1-3.3c1.3-0.1,2.6-0.1,3.9-0.1c1.3,0,2.7,0.1,3.9,0.1
		c0.7,1.1,1.4,2.2,2.1,3.3c0.7,1.1,1.3,2.3,1.9,3.5C195.3,354.7,194.7,355.8,194.1,357L194.1,357z M197.9,336.4
		c1.4,0.8,2,4.2,1.1,8.6c-0.1,0.3-0.1,0.6-0.2,0.9c-1.8-0.4-3.7-0.7-5.8-0.9c-1.2-1.7-2.4-3.2-3.6-4.6c0.3-0.3,0.7-0.6,1-0.9
		C193.5,336.7,196.5,335.6,197.9,336.4L197.9,336.4z"/>
	<path class="st15" d="M188,349.6c2.1,0,3.9,1.7,3.9,3.9c0,2.1-1.7,3.9-3.9,3.9c-2.1,0-3.9-1.7-3.9-3.9
		C184.2,351.3,185.9,349.6,188,349.6"/>
</g>
<path class="st16" d="M533.9,223.1v-16.8h21v-1h-21V190h22.3v-1h-23.3v35.1h23.5v-1L533.9,223.1L533.9,223.1z M575.3,198.8
	l-8.7,11.4l-8.5-11.4h-1.3L566,211l-10,13.1h1.2l9.5-12.3l9.5,12.3h1.2L567.3,211l9.2-12.2H575.3L575.3,198.8z M580.4,232.7V217h0.1
	c0.6,2.3,1.8,4.1,3.5,5.5s3.9,2.1,6.6,2.1c1.7,0,3.3-0.4,4.6-1.1c1.3-0.7,2.5-1.7,3.4-2.9s1.6-2.6,2.1-4.2c0.5-1.6,0.7-3.3,0.7-5.1
	c0-1.9-0.2-3.7-0.7-5.3s-1.2-3-2.1-4.2c-0.9-1.2-2.1-2.1-3.4-2.8c-1.3-0.7-2.8-1-4.5-1c-1.3,0-2.5,0.2-3.6,0.6
	c-1.1,0.4-2.1,0.9-2.9,1.6c-0.9,0.7-1.6,1.5-2.2,2.4c-0.6,0.9-1.1,2-1.4,3.1h-0.1v-6.9h-1v33.9H580.4L580.4,232.7z M590.6,223.7
	c-3.1,0-5.6-1.1-7.4-3.2c-1.9-2.1-2.8-5.2-2.8-9.1c0-1.6,0.2-3.2,0.7-4.7s1.1-2.8,2-3.9c0.9-1.1,1.9-2,3.2-2.7s2.7-1,4.3-1
	s3.1,0.3,4.3,1s2.2,1.5,3,2.7c0.8,1.1,1.4,2.4,1.8,3.9c0.4,1.5,0.6,3,0.6,4.6c0,1.5-0.2,2.9-0.6,4.4c-0.4,1.5-1,2.8-1.7,3.9
	c-0.8,1.2-1.8,2.1-3,2.8C593.8,223.3,592.3,223.7,590.6,223.7L590.6,223.7z M606.7,224.1v-14.3c0-1.4,0.2-2.7,0.6-4
	c0.4-1.3,1-2.5,1.8-3.5s1.9-1.8,3.1-2.4c1.3-0.6,2.8-0.8,4.5-0.7v-1c-1.5,0-2.8,0.1-4,0.5c-1.1,0.4-2.1,0.9-2.9,1.5
	c-0.8,0.6-1.5,1.4-2,2.2s-0.9,1.7-1.1,2.7h-0.1v-6.3h-1v25.3H606.7L606.7,224.1z M618,211.7h21.1c0.1-1.7-0.1-3.4-0.5-5
	s-1.1-3-2-4.3c-0.9-1.2-2.1-2.2-3.5-3s-3.1-1.1-5.1-1.1c-1.4,0-2.8,0.3-4.1,0.9c-1.3,0.6-2.5,1.4-3.5,2.6c-1,1.1-1.8,2.5-2.5,4.2
	c-0.6,1.6-0.9,3.5-0.9,5.6c0,1.9,0.2,3.6,0.6,5.2s1.1,3,2,4.2s2,2.1,3.4,2.8s3.1,1,5,0.9c2.9,0,5.3-0.8,7.3-2.4
	c2-1.6,3.1-3.9,3.5-6.9h-1c-0.4,2.8-1.5,4.9-3.3,6.3c-1.8,1.4-4,2.1-6.6,2.1c-1.8,0-3.3-0.3-4.6-0.9c-1.2-0.6-2.3-1.5-3-2.6
	c-0.8-1.1-1.4-2.4-1.7-3.8C618.2,214.9,618,213.4,618,211.7L618,211.7z M638.1,210.7H618c0.1-1.8,0.4-3.4,1-4.8
	c0.6-1.4,1.3-2.6,2.2-3.6s1.9-1.8,3.1-2.3c1.2-0.5,2.5-0.8,3.9-0.8c1.6,0,3.1,0.3,4.3,0.9c1.2,0.6,2.3,1.4,3.1,2.5
	c0.8,1,1.5,2.3,1.9,3.7C637.9,207.7,638.1,209.1,638.1,210.7L638.1,210.7z M659.5,206.3h1c0-2.8-0.8-4.9-2.5-6.1
	c-1.6-1.3-3.9-1.9-6.7-1.9c-1.6,0-2.9,0.2-4,0.6c-1.1,0.4-2,0.9-2.7,1.5s-1.2,1.3-1.5,2.1s-0.4,1.5-0.4,2.2c0,1.4,0.2,2.5,0.7,3.3
	s1.3,1.5,2.3,1.9c0.7,0.3,1.5,0.6,2.5,0.9c0.9,0.3,2,0.5,3.2,0.8c1.1,0.3,2.1,0.5,3.2,0.8c1,0.3,2,0.6,2.8,1.1c0.8,0.4,1.5,1,2,1.7
	s0.8,1.6,0.8,2.7c0,1.1-0.3,2-0.8,2.8c-0.5,0.7-1.2,1.4-1.9,1.8c-0.8,0.5-1.7,0.8-2.6,1c-1,0.2-1.9,0.3-2.8,0.3c-3,0-5.3-0.7-6.9-2
	c-1.6-1.3-2.4-3.4-2.4-6.3h-1c0,3.2,0.9,5.5,2.6,7c1.7,1.5,4.3,2.2,7.6,2.2c1.1,0,2.2-0.1,3.3-0.4c1.1-0.2,2.1-0.6,2.9-1.2
	c0.9-0.5,1.6-1.3,2.1-2.2s0.8-2,0.8-3.2s-0.2-2.2-0.7-2.9c-0.5-0.8-1.1-1.4-1.9-1.9c-0.8-0.5-1.6-0.9-2.6-1.2s-1.9-0.6-2.9-0.8
	c-1.2-0.3-2.4-0.6-3.6-0.9c-1-0.3-2-0.6-2.9-0.9c-0.9-0.4-1.5-0.9-2-1.5s-0.8-1.6-0.8-2.9c0-0.2,0.1-0.6,0.2-1.2
	c0.1-0.6,0.4-1.2,0.9-1.8s1.2-1.1,2.3-1.6c1-0.5,2.4-0.7,4.2-0.7c1.2,0,2.3,0.1,3.3,0.4c1,0.3,1.9,0.7,2.6,1.3
	c0.7,0.6,1.3,1.3,1.7,2.2C659.3,204,659.5,205,659.5,206.3L659.5,206.3z M682.3,206.3h1c0-2.8-0.8-4.9-2.5-6.1s-3.9-1.9-6.7-1.9
	c-1.6,0-2.9,0.2-4,0.6c-1.1,0.4-2,0.9-2.7,1.5s-1.2,1.3-1.5,2.1s-0.4,1.5-0.4,2.2c0,1.4,0.2,2.5,0.7,3.3s1.3,1.5,2.3,1.9
	c0.7,0.3,1.5,0.6,2.5,0.9c0.9,0.3,2,0.5,3.2,0.8c1.1,0.3,2.1,0.5,3.2,0.8c1,0.3,2,0.6,2.8,1.1c0.8,0.4,1.5,1,2,1.7s0.8,1.6,0.8,2.7
	c0,1.1-0.3,2-0.8,2.8c-0.5,0.7-1.2,1.4-1.9,1.8c-0.8,0.5-1.7,0.8-2.6,1c-1,0.2-1.9,0.3-2.8,0.3c-3,0-5.3-0.7-6.9-2
	c-1.6-1.3-2.4-3.4-2.4-6.3h-1c0,3.2,0.9,5.5,2.6,7c1.7,1.5,4.3,2.2,7.6,2.2c1.1,0,2.2-0.1,3.3-0.4c1.1-0.2,2.1-0.6,2.9-1.2
	c0.9-0.5,1.6-1.3,2.1-2.2s0.8-2,0.8-3.2s-0.2-2.2-0.7-2.9c-0.5-0.8-1.1-1.4-1.9-1.9c-0.8-0.5-1.6-0.9-2.6-1.2s-1.9-0.6-2.9-0.8
	c-1.2-0.3-2.4-0.6-3.6-0.9c-1-0.3-2-0.6-2.9-0.9c-0.9-0.4-1.5-0.9-2-1.5c-0.5-0.7-0.8-1.6-0.8-2.9c0-0.2,0.1-0.6,0.2-1.2
	c0.1-0.6,0.4-1.2,0.9-1.8s1.2-1.1,2.3-1.6c1-0.5,2.4-0.7,4.2-0.7c1.2,0,2.3,0.1,3.3,0.4c1,0.3,1.9,0.7,2.6,1.3s1.3,1.3,1.7,2.2
	C682.1,204,682.3,205,682.3,206.3L682.3,206.3z"/>
<title>laravel and vue</title>
</svg>
