<?xml version="1.0" encoding="utf-8"?>
<!-- Generator: Adobe Illustrator 21.0.0, SVG Export Plug-In . SVG Version: 6.00 Build 0)  -->
<svg version="1.1" id="b33613f3-47b2-4fb7-9d5b-ca5c70d6619d"
	 xmlns="http://www.w3.org/2000/svg" xmlns:xlink="http://www.w3.org/1999/xlink" x="0px" y="0px" viewBox="0 0 863 826.7"
	 style="enable-background:new 0 0 863 826.7;" xml:space="preserve">
<style type="text/css">
	.st0{fill:#FFB9B9;}
	.st1{opacity:0.1;enable-background:new    ;}
	.st2{fill:#D0CDE1;}
	.st3{fill:#3F3D56;}
	.st4{fill:#2F2E41;}
	.st5{fill:#FA744F;}
</style>
<title>laravel and vue</title>
<circle class="st0" cx="394.6" cy="155.9" r="38.2"/>
<path class="st0" d="M366.5,175v60.4h62.4c0,0-8.1-50.3-4-65.4L366.5,175z"/>
<path class="st1" d="M290.5,301.3l4.5-24.7c0,0-26.2,113.7-23.1,126.8s25.2,33.2,28.2,34.2s31.2-86.6,31.2-86.6L290.5,301.3z"/>
<path class="st2" d="M305.1,273.7l-17.1,3c0,0-26.2,113.7-23.1,126.8s25.2,33.2,28.2,34.2s31.2-86.6,31.2-86.6L305.1,273.7z"/>
<path class="st1" d="M495.8,307.4l8.6-16.6c0,0,12.1,113.7,4,124.8s-39.9,15.2-39.9,15.2l-0.4-82.6L495.8,307.4z"/>
<path class="st3" d="M302,450.8c0,0-29.2-11.1-34.2,10.1s12.1,115.7,12.1,115.7s11.1,71.5,18.1,73.5s38.2,3,43.3-6
	s-15.1-101.7-15.1-101.7l116.8-2c0,0-7,80.5-11.1,87.6s-4,31.2,0,31.2s48.3-2,51.3-8.1s20.1-141.9,20.1-141.9s14.1-47.3-2-44.3
	S302,450.8,302,450.8z"/>
<path class="st4" d="M474.2,647.1c0,0,10.1-7,15.1,0s7,15.1-15.1,27.2s-39.3,9.1-39.3,7v-29.2L474.2,647.1z"/>
<path class="st4" d="M300,644c0,0-10.1-7-15.1,0s-7,15.1,15.1,27.2s39.3,9.1,39.3,7v-29.2L300,644z"/>
<path class="st4" d="M394.9,107.7c-3.8-0.1-7.6,0.4-11.2,1.6c-2.8,1.1-5.5,2.5-8,4.2L358.8,124c-2.9,1.3-4.8,4.2-4.8,7.4l-2.1,15.8
	c-0.5,4-1,8.3,0.8,11.9c1.5,3,4.3,5.1,6.7,7.5c3.7,3.9,6.3,8.8,7.2,14.1c1.2,6.6,0.4,14.5,5.7,18.8c2.8,2.3,6.7,2.7,10.3,2.9
	c9.9,0.6,19.9,0.2,29.7-1.1c1.6-0.1,3.1-0.5,4.5-1.3c1.8-1,2.9-2.9,3.9-4.7c3.8-6.4,7.7-13.2,7.6-20.7c0-3.7-1-7.6,0.8-10.9
	c0.9-1.4,1.9-2.7,3-3.9c2.2-3.1,2.6-7,3-10.8c1.1-12-0.1-21.1-8.9-29.6C417.9,111.4,406.2,107.7,394.9,107.7z"/>
<path class="st2" d="M490.3,256.5c0,0-59.4-29.2-59.4-31.2s-6-15.1-10.1-15.1s-38.2-11.1-57.4,5l-2,13.1L288,276.7l20.1,73.5
	c0,0,13.1,14.1,9.1,24.2s3,61.4,3,61.4l158-5v-68.4c0,0,5-16.1,8.1-21.1s0-20.1,0-20.1l24.2-30.2
	C510.4,290.8,507.4,262.6,490.3,256.5z"/>
<polygon class="st4" points="300.9,569.7 267.3,740.5 284.1,740.5 316.3,572.5 "/>
<polygon class="st4" points="408.7,583.7 429.7,779.6 443.7,779.6 431.1,578.1 "/>
<polygon class="st4" points="466.1,578.1 495.5,708.3 509.5,708.3 481.5,575.3 "/>
<path class="st2" d="M497.3,277.7l13.1,13.1c0,0,12.1,113.7,4,124.8s-39.9,15.2-39.9,15.2l-0.4-82.6L497.3,277.7z"/>
<polygon class="st4" points="354.1,578.1 349.9,681.7 361.1,681.7 369.5,578.1 "/>
<path class="st5" d="M277.1,551.5c0,0-22.4-149.8,40.6-154s152.6,0,152.6,0s51.8-4.2,36.4,154c0,0,14,46.2-112,42
	S277.1,551.5,277.1,551.5z"/>
</svg>
