<?xml version="1.0" encoding="utf-8"?>
<!-- Generator: Adobe Illustrator 21.0.0, SVG Export Plug-In . SVG Version: 6.00 Build 0)  -->
<svg version="1.1" id="Layer_1" xmlns="http://www.w3.org/2000/svg" xmlns:xlink="http://www.w3.org/1999/xlink" x="0px" y="0px"
	 viewBox="0 0 1109.2 648.5" style="enable-background:new 0 0 1109.2 648.5;" xml:space="preserve">
<style type="text/css">
	.st0{fill:#3F3D56;}
	.st1{fill:#21BF73;}
</style>
<path class="st0" d="M169.7,297.3c9.3,4.8,25.9,9.8,45.3,14.6c52.9,13.1,126,24.5,126,24.5s373.6,78.1,671-3.2
	c0,0,43.8-16.5,9.3-50.2c-5.3-5.1-11.1-9.7-17.3-13.7l-0.4-0.5c-3.8-4.6-8.1-8.8-12.7-12.5c-13.5-11.3-36.8-25.6-67.6-24.2l-758,28
	C165.3,259.9,135.3,279.5,169.7,297.3z"/>
<path class="st0" d="M324.5,261.1L182.7,131.5l-70,3.4L165.4,260C165.3,259.9,320.3,280.4,324.5,261.1z"/>
<polygon class="st0" points="724.5,242.7 425.4,117.3 374.2,121.6 506.4,201.9 544,256.3 "/>
<path class="st1" d="M215.1,311.9C267.9,325,341,336.4,341,336.4s373.6,78.1,671-3.2c0,0,43.8-16.5,9.3-50.2l-0.2,0.5
	c0,0-66.2,33.7-362.1,32L215.1,311.9z"/>
<path class="st0" d="M265.2,315.7l-145.6,39.4l-34.3-8.2l90.6-52C175.9,294.9,278.8,285.9,265.2,315.7z"/>
<path class="st1" d="M970.1,283.2c6.6,0.9,23.1-8.3,33.5-14.6c-3.8-4.6-8.1-8.8-12.7-12.5c-8.3,4.9-23,12.6-30.5,11.3
	C949.6,265.6,960.2,281.8,970.1,283.2z"/>
<path class="st0" d="M301.8,518.8l88.4,15.7l271-137.6l50.3-25.6l24.4-12.4c-37.9-41-216.6-13.1-216.6-13.1c-3.7,2.4-5.3,6.9-5.8,12
	c-0.9,9.6,2.2,21.4,3.4,25.7c0.3,1,0.5,1.6,0.5,1.6L301.8,518.8z"/>
</svg>
