<?xml version="1.0" encoding="utf-8"?>
<!-- Generator: Adobe Illustrator 21.0.0, SVG Export Plug-In . SVG Version: 6.00 Build 0)  -->
<svg version="1.1" id="Layer_1" xmlns="http://www.w3.org/2000/svg" xmlns:xlink="http://www.w3.org/1999/xlink" x="0px" y="0px"
	 viewBox="0 0 127.4 92.1" style="enable-background:new 0 0 127.4 92.1;" xml:space="preserve">
<style type="text/css">
	.st0{fill:#B0F2F7;}
	.st1{opacity:0.5;fill:#69E2DC;enable-background:new    ;}
</style>
<path class="st0" d="M112.5,40.3l-14,8.9l8.5-15.5c-2.4-1.9-5.4-3-8.5-3h-0.2c-1,0-1.9-0.1-2.9-0.2l-4.7,3l2-3.7
	c-3.4-1.2-6.3-3.4-8.3-6.3l-8.5,5.4l5.4-9.8c-5-6-11.7-9.6-19-9.6c-8.9,0-16.7,5.3-21.8,13.5c-3.1,5-8.6,8-14.5,7.8h-0.5
	c-9.8,0-17.7,11.1-17.7,24.7s7.9,24.7,17.7,24.7c2.2,0,4.3-0.5,6.2-1.6c6.7-3.3,14.6-3.4,21.4-0.4c5.8,2.6,12.4,2.6,18.2,0.1
	c6.8-2.9,14.5-2.8,21.2,0.4c1.9,1,4,1.5,6.1,1.5c9.8,0,17.7-11.1,17.7-24.7C116.2,50.2,115,45,112.5,40.3z"/>
<path class="st1" d="M86.1,76.5c-5.1-1-10.4-0.4-15.2,1.6c-5.8,2.6-12.4,2.6-18.2,0c-6.9-3-14.7-2.9-21.4,0.4c-1.9,1-4,1.5-6.2,1.6
	c-8.7,0-15.9-8.7-17.4-20.3c1.7-1.3,3.2-2.9,4.3-4.7c5.1-8.2,13-13.4,21.8-13.4S50.6,46.9,55.7,55c3.1,5,8.6,8,14.5,7.9h0.2
	C77.2,62.9,83.2,68.4,86.1,76.5z"/>
<image style="overflow:visible;" width="1280" height="1024" xlink:href="EE8C07C3.jpg"  transform="matrix(1 0 0 1 -316.9555 147.0351)">
</image>
</svg>
